<?xml version="1.0" standalone="no"?>
  <!DOCTYPE svg PUBLIC "-//W3C//DTD SVG 1.1//EN" "http://www.w3.org/Graphics/SVG/1.1/DTD/svg11.dtd" >
  <svg>
  <metadata>
  Created by font-carrier
  </metadata>
  <defs>
  <font id="ChinaCyr" horiz-adv-x="1128" vert-adv-y="1128" >
    <font-face
      
      font-family="ChinaCyr"
      
      font-weight="400"
      
      font-stretch="normal"
      
      units-per-em="1000"
      
      ascent="900"
      
      descent="-148"
      
    />
      <missing-glyph />

      

      
      <glyph glyph-name="uni21" unicode="&#x21;" d="M160 3L85 0Q80 16 75 33Q70 50 63 69L149 64Q152 52 155 37Q158 22 160 3M126 131L106 130Q110 168 111.50 211Q113 254 113 300Q113 553 40 799L156 800Q163 759 166.50 706.50Q170 654 170 590Q170 480 159 365.50Q148 251 126 131Z"  horiz-adv-x="210" vert-adv-y="1000"  />

      
      <glyph glyph-name="uni22" unicode="&#x22;" d="M78 571L72 574Q106 639 112 688L116 720L67 718Q62 737 55 757.50Q48 778 40 800L143 794Q152 780 152 764Q152 758 144 721Q124 643 78 571M227 571L220 574Q251 630 260 688L265 720L216 718Q211 737 204 757.50Q197 778 189 800L292 794Q301 780 301 763Q301 758 293 721L293 721Q276 644 227 571Z"  horiz-adv-x="341" vert-adv-y="1000"  />

      
      <glyph glyph-name="uni23" unicode="&#x23;" d="M269 562Q265 643 252 712L132 725Q158 641 174 558Q110 553 53 543L40 423Q115 446 190 462Q202 369 202 276L202 269Q186 270 170 271Q109 276 47 286L46 260Q124 238 201 224Q200 190 197 155Q192 94 182 32L208 31Q234 124 249 216Q372 197 494 197L511 197Q515 116 528 47L648 34Q622 118 606 201Q670 206 727 216L740 336Q665 313 590 297Q578 390 578 483L578 490Q594 489 610 488Q671 483 733 473L734 499Q656 521 579 535Q580 569 583 604Q588 665 598 727L572 728Q546 635 531 543Q408 562 286 562L269 562M509 283Q400 266 291 266L257 266Q271 372 271 476Q380 493 489 493L523 493Q509 387 509 283Z"  horiz-adv-x="789" vert-adv-y="1000"  />

      
      <glyph glyph-name="uni24" unicode="&#x24;" d="M306 55L276 52L263 0L235 0L242 50L215 49Q130 46 48 81L82 165Q162 107 229 97L248 94L255 168Q265 286 264 365L263 402L254 404Q174 422 109 416L75 413L71 424L72 424L67 437Q40 508 40 589Q40 642 57 691L65 713L104 726Q129 734 156 740.50Q183 747 212 751L215 752L201 800L300 789Q301 785 301.50 779Q302 773 304 765L304 761L306 761Q434 761 502 730L468 632Q383 692 321 705L311 707L312 704Q319 639 324 576Q325 562 325 530Q325 498 325 448L325 443L344 440Q414 430 473 407L473 404Q507 312 507 221Q507 143 485 98L485 98Q433 81 388.50 70Q344 59 306 55M289 107L285 90L302 89Q325 87 343 89L370 91L387 115Q452 207 464 281L468 306L433 326Q420 334 399 345Q378 356 350 370L323 381L323 369Q323 310 314.50 244Q306 178 289 107M88 437L89 428L107 432Q174 447 237 447L261 447L258 499Q252 603 228 699L223 719L206 719L196 719Q193 718 185 718L184 718L166 693Q84 581 84 482Q84 478 85 466.50Q86 455 88 437Z"  horiz-adv-x="547" vert-adv-y="1000"  />

      
      <glyph glyph-name="uni25" unicode="&#x25;" d="M205 0L122 70Q305 482 631 769L657 751Q316 373 205 0M577 20L553 22L556 12L548 12L543 23L517 28L511 78L526 70L523 80Q506 134 514 185L515 192L501 188L501 196L516 202L517 205Q518 212 520 223L571 229L566 219L569 220Q601 232 651 230L678 229L674 241L682 241L688 227L712 223L718 172L705 179L707 173Q722 126 716 68L715 59L727 63L728 55L713 49L713 48Q713 44 710 30L659 24L663 31L644 27Q604 18 577 20M646 46L672 50L682 75Q700 119 688 187L688 187L687 188Q647 209 583 204L557 202L548 178Q528 128 542 66L542 63L562 56Q605 40 646 46M85 586L83 587L86 577L78 577L74 589L66 590Q63 591 58.50 592.50Q54 594 48 595L44 645L59 637L57 646Q45 695 53 752L54 759L40 755L40 763L56 769L57 772Q59 775 61 789L112 793L106 783L109 784Q157 796 192 791L219 787L216 800L224 800L229 786L252 780L256 729L243 736L245 731Q260 671 249 625L247 617L260 620L260 612L245 606L245 605Q244 602 243 597.50Q242 593 240 588L190 584L194 591L191 591Q178 589 164 587Q150 585 133 584Q113 583 85 586M178 607L204 609L215 634Q235 678 227 746L227 746L225 746Q168 772 123 768L97 766L87 743Q71 710 71 669Q71 647 75 632L75 629L94 621Q137 604 178 607Z"  horiz-adv-x="768" vert-adv-y="1000"  />

      
      <glyph glyph-name="uni27" unicode="&#x27;" d="M78 571L72 574Q88 606 98 634Q108 662 112 688L116 720L67 718Q62 737 55 757.50Q48 778 40 800L143 794Q156 772 149 742L144 721Q128 644 78 571Z"  horiz-adv-x="192" vert-adv-y="1000"  />

      
      <glyph glyph-name="uni28" unicode="&#x28;" d="M224 0L253 2Q91 196 91 384Q91 542 207 688L145 800Q132 772 114 731Q96 690 73 634Q40 536 40 445Q40 232 224 0Z"  horiz-adv-x="293" vert-adv-y="1000"  />

      
      <glyph glyph-name="uni29" unicode="&#x29;" d="M69 800L40 798Q202 604 202 416Q202 258 86 112L148 0Q198 103 220 166Q253 265 253 355Q253 568 69 800Z"  horiz-adv-x="293" vert-adv-y="1000"  />

      
      <glyph glyph-name="uni2a" unicode="&#x2a;" d="M300 509L357 461L342 391Q308 432 284.50 472Q261 512 248 551L240 576L227 563Q204 540 190 505L159 432L88 424Q136 502 211 563L231 579L216 587Q188 602 149 605L69 611L40 677Q143 654 210 603L231 587L235 605Q236 611 236.50 617.50Q237 624 237 631Q237 655 212 752L265 800Q266 786 266.50 773Q267 760 267 747Q267 673 248 615L240 590L258 593Q296 599 390 659L452 624Q410 607 365 596.50Q320 586 271 584L245 583L253 567Q267 539 300 509M238 583L238 583L238 583L238 583Z"  horiz-adv-x="492" vert-adv-y="1000"  />

      
      <glyph glyph-name="uni2b" unicode="&#x2b;" d="M260 138L240 139Q254 198 263 245.50Q272 293 275 328L280 389L232 393Q219 394 199 394.50Q179 395 151 395Q103 394 40 389L41 409Q167 433 263 433L281 433L281 453Q281 497 275 548Q269 599 256 655L337 662Q339 636 340.50 611Q342 586 341 561Q340 510 335 462L332 433L338 433Q390 433 448 425Q506 417 571 401L551 322Q443 366 356 379L325 384L319 352Q308 294 293.50 240.50Q279 187 260 138Z"  horiz-adv-x="611" vert-adv-y="1000"  />

      
      <glyph glyph-name="uni2c" unicode="&#x2c;" d="M72 0L67 2Q93 50 100 99L104 126L63 124Q56 147 50 164.50Q44 182 40 193L127 188Q138 168 132 144L128 127Q112 58 72 0Z"  horiz-adv-x="175" vert-adv-y="1000"  />

      
      <glyph glyph-name="uni2d" unicode="&#x2d;" d="M553 408L563 322Q390 373 224 373Q134 373 40 358L40 377Q211 422 378 422Q424 422 467.50 418.50Q511 415 553 408Z"  horiz-adv-x="603" vert-adv-y="1000"  />

      
      <glyph glyph-name="uni2010" unicode="&#x2010;" d="M553 408L563 322Q390 373 224 373Q134 373 40 358L40 377Q211 422 378 422Q424 422 467.50 418.50Q511 415 553 408Z"  horiz-adv-x="603" vert-adv-y="1000"  />

      
      <glyph glyph-name="uni2e" unicode="&#x2e;" d="M150 40L156 4L67 0Q62 19 55 39.50Q48 60 40 82L143 76Q145 67 146.50 58Q148 49 150 40Z"  horiz-adv-x="196" vert-adv-y="1000"  />

      
      <glyph glyph-name="uni2f" unicode="&#x2f;" d="M537 800L564 784Q250 388 164 0L40 54Q85 178 198 365Q350 611 537 800Z"  horiz-adv-x="604" vert-adv-y="1000"  />

      
      <glyph glyph-name="uni30" unicode="&#x30;" d="M380 0Q328 0 247 12L226 15Q218 17 209 18.50Q200 20 190 22L175 26L153 91Q74 325 74 573Q74 609 75.50 645.50Q77 682 81 719L83 740L41 735L40 756Q184 800 321 800Q408 800 520 779L520 779L542 713Q608 515 608 299Q608 189 593 79L590 57L643 61L643 40Q575 20 509 9.50Q443-1 380 0M467 52L493 52L509 129Q540 272 540 411Q540 536 511 684L509 689L497 628Q435 314 276 76L272 70L292 66Q368 52 467 52M184 120L187 108L192 114Q369 326 469 682L480 721L465 725Q364 752 266 752L244 752Q242 752 236 752Q230 752 221 751L203 750L195 716Q156 550 156 388Q156 229 184 120Z"  horiz-adv-x="683" vert-adv-y="1000"  />

      
      <glyph glyph-name="uni31" unicode="&#x31;" d="M353 0L236 11Q226 72 221.50 133.50Q217 195 217 257Q217 455 267 663L283 728L269 704Q195 576 95 490L40 526Q123 581 188.50 649.50Q254 718 303 800L333 799Q294 584 294 416Q294 209 353 0Z"  horiz-adv-x="393" vert-adv-y="1000"  />

      
      <glyph glyph-name="uni32" unicode="&#x32;" d="M541 112L527 0Q424 38 296 38Q196 38 61 17L60 34Q46 118 46 162Q46 375 262 417Q356 435 405 499Q451 557 451 635Q451 678 438 714L430 738L398 741Q388 742 374 742.50Q360 743 343 743Q257 743 196.50 717.50Q136 692 73 631L40 740Q139 800 266 800Q389 800 524 735L528 724L531 715Q540 688 540 651Q540 558 487 475Q426 380 323 369Q67 341 67 161Q67 134 75 88L84 42L137 61Q296 117 467 117Q484 117 502.50 115.50Q521 114 541 112Z"  horiz-adv-x="581" vert-adv-y="1000"  />

      
      <glyph glyph-name="uni33" unicode="&#x33;" d="M53 0L40 88Q182 85 250 102Q336 125 375 192L386 211L372 232L312 325Q245 429 152 440L156 455L178 464Q225 483 252 514Q276 541 297 592Q322 655 339 694L341 699L328 707Q222 773 118 773Q104 773 89 772Q74 771 58 769L61 787Q120 800 192 800Q342 800 482 720L421 640Q418 636 410.50 624Q403 612 390 592L360 544Q323 495 232 462L207 453L221 452Q295 447 348 399Q372 372 422 322L443 303Q438 82 206 25Q180 18 53 0Z"  horiz-adv-x="522" vert-adv-y="1000"  />

      
      <glyph glyph-name="uni34" unicode="&#x34;" d="M374 0L346 3Q335 84 329.50 161.50Q324 239 324 313L324 349Q324 356 324 364.50Q324 373 325 384L327 429L304 428Q185 423 57 355L57 355L57 355L40 357Q72 485 72 599Q72 696 51 800L146 781Q147 773 147 764Q147 755 147 745Q147 627 94 463L88 445L111 450Q166 462 224 462Q276 462 328 453L331 491Q346 673 378 788L504 793Q372 492 372 76Q372 58 372.50 39Q373 20 374 0Z"  horiz-adv-x="544" vert-adv-y="1000"  />

      
      <glyph glyph-name="uni35" unicode="&#x35;" d="M203 0Q108 1 40 42L54 157Q217 51 339 51Q379 51 415 58L427 60L431 107Q435 168 422 250L411 313L369 335Q322 360 288 375Q254 390 234 397Q160 420 80 420L78 430L77 430Q77 601 136 737L140 746L115 753L113 770L147 764L149 768Q150 772 153.50 779.50Q157 787 163 800L177 797L167 761L172 760Q232 748 319 748Q442 748 585 787L612 680Q595 676 547 676Q386 676 200 729L162 740L156 707Q152 684 150 661.50Q148 639 148 617Q148 588 151 549Q154 510 161 460L164 437L197 438Q304 441 380 422Q394 418 422 409.50Q450 401 491 387L491 387L492 365Q493 354 493 348.50Q493 343 493 344L493 322Q493 182 454 76L450 65L476 70L472 54L444 44Q436 24 432 11L418 13L422 37L394 28Q305-2 203 0Z"  horiz-adv-x="652" vert-adv-y="1000"  />

      
      <glyph glyph-name="uni36" unicode="&#x36;" d="M246 0Q130 0 48 20Q40 177 92 323L110 376Q189 612 428 800L428 800L457 788Q347 692 282 602Q201 491 180 384L179 379L192 383Q214 390 262 396Q310 402 384 409Q403 410 436 406Q505 216 511 47L512 19Q442 9 375 4.50Q308 0 246 0M375 43L403 41L404 48Q422 174 422 278L422 318L399 324Q318 345 251 345Q203 345 171 338L169 338L161 293Q156 261 154 222.50Q152 184 154 138L156 96L171 91Q299 48 375 43Z"  horiz-adv-x="545" vert-adv-y="1000"  />

      
      <glyph glyph-name="uni37" unicode="&#x37;" d="M201 0L177 11Q187 115 206 215.50Q225 316 253 411L260 435L224 434Q205 433 183.50 435Q162 437 137 441L130 492Q208 469 263 469L270 469L280 500Q291 535 315 592Q339 649 374 727L379 738L360 733Q280 712 163 712Q134 712 106 713.50Q78 715 53 719L40 800Q174 767 284 767Q298 767 312 767.50Q326 768 340 769L397 773L398 776L413 776L455 781Q460 782 474 784.50Q488 787 513 792L514 774L456 681Q428 636 406 595Q384 554 368 517L349 473L389 478Q403 480 424 484Q445 488 473 495L474 480Q448 470 420 462Q392 454 361 448L336 443L331 434Q297 372 264.50 263.50Q232 155 201 0Z"  horiz-adv-x="554" vert-adv-y="1000"  />

      
      <glyph glyph-name="uni38" unicode="&#x38;" d="M301 12L296 9L297 8L284 0L283 1L282 0L281 3L259 22Q109 151 57 254L57 254Q149 358 206 395L231 411L221 418Q187 441 163.50 458Q140 475 127 485Q86 515 63 542Q54 551 40 571L40 571Q125 702 240 787L245 790L244 791L256 800L257 799L258 800L259 798L283 781Q431 675 492 587L505 568L490 548Q413 447 368 412L338 389L353 377Q464 288 500 239Q505 232 509.50 226Q514 220 516 215L520 208Q423 84 301 12M242 73L244 71L275 85Q285 89 300 95.50Q315 102 337 111Q350 116 371 125Q392 134 421 148L446 162L438 190Q417 262 357 330L324 367L281 358Q205 342 151 307L131 294L144 259Q188 140 242 73M233 445L250 431L292 443Q366 464 416 506L435 522L419 554Q357 678 304 731L302 733L273 716Q239 700 133 640L109 623L125 587Q163 503 233 445Z"  horiz-adv-x="560" vert-adv-y="1000"  />

      
      <glyph glyph-name="uni39" unicode="&#x39;" d="M59 0L40 17Q229 134 332 285L358 323L354 319Q149 441 86 513Q75 526 68.50 534Q62 542 60 546L60 546Q153 684 283 785L287 789L300 800L301 799L302 800L304 797L351 763Q490 662 561 565L577 543Q390 161 59 0M296 388L364 332L386 366Q409 401 431 446Q453 491 474 544L475 546L475 547Q458 576 445.50 598Q433 620 425 633Q400 675 372 705L352 726L319 707Q294 695 255 674Q216 653 164 623L137 604L150 574Q194 472 296 388Z"  horiz-adv-x="617" vert-adv-y="1000"  />

      
      <glyph glyph-name="uni3a" unicode="&#x3a;" d="M144 3L67 0Q62 19 55 39.50Q48 60 40 82L143 76Q152 62 152 45Q152 40 144 3M159 508L70 504Q60 543 43 586L146 580Q148 568 151.50 550Q155 532 159 508Z"  horiz-adv-x="199" vert-adv-y="1000"  />

      
      <glyph glyph-name="uni3b" unicode="&#x3b;" d="M77-147L72-145Q103-87 110-29L117 2L67 0Q60 27 52 47.50Q44 68 40 82L143 76Q151 64 151 44Q151 28 144 4L144 4Q136-33 118.50-71Q101-109 77-147M160 507L69 504Q62 529 55.50 549.50Q49 570 43 586L147 581L154 545Q157 535 158 526.50Q159 518 160 507Z"  horiz-adv-x="200" vert-adv-y="1000"  />

      
      <glyph glyph-name="uni3c" unicode="&#x3c;" d="M475 15L465 0Q292 164 103 227L40 248L40 249L69 282L98 313Q237 461 420 547L475 482Q276 420 151 320L125 299L127 298Q321 202 475 15Z"  horiz-adv-x="515" vert-adv-y="1000"  />

      
      <glyph glyph-name="uni3d" unicode="&#x3d;" d="M736 320L749 200Q524 270 300 270Q237 270 176 265.50Q115 261 56 251L55 277Q286 339 503 339Q632 339 736 320M40 423L53 543Q157 562 286 562Q507 562 734 499L733 473Q671 483 610 488Q549 493 489 493Q265 493 40 423Z"  horiz-adv-x="789" vert-adv-y="1000"  />

      
      <glyph glyph-name="uni3e" unicode="&#x3e;" d="M51 0L40 15Q198 203 388 298L390 299L365 320Q250 415 40 482L96 547Q260 470 418 312L418 312L419 311L446 282L475 249L475 248L412 227Q225 165 51 0Z"  horiz-adv-x="515" vert-adv-y="1000"  />

      
      <glyph glyph-name="uni3f" unicode="&#x3f;" d="M288 40L294 4L205 0Q200 19 193 39.50Q186 60 178 82L281 75Q283 67 284.50 58Q286 49 288 40M228 130L200 124Q158 204 158 273Q158 392 283 467Q381 526 381 623Q381 696 330 752L319 764L293 761Q219 752 171.50 725Q124 698 79 639L40 721Q138 802 269 802Q329 802 390 784L424 774Q466 728 466 637Q466 508 365 446Q198 345 198 234Q198 186 228 130Z"  horiz-adv-x="506" vert-adv-y="1000"  />

      
      <glyph glyph-name="uni40" unicode="&#x40;" d="M138 1L115 0Q124 92 124 178Q124 436 41 702L40 725Q86 721 131 719Q176 717 219 717Q483 717 744 799L744 799L744 799L761 800Q757 762 755.50 726Q754 690 754 655Q754 494 795 341L814 272L814 255Q782 259 751.50 260.50Q721 262 690 262Q506 262 324 201L313 200Q316 228 316 257Q316 369 266 530L266 530L266 530L265 540Q290 537 314 537Q417 537 550 580L550 580L550 580L561 580Q558 552 558 524Q558 421 595 307L598 299L602 299Q656 298 728 287L736 286L735 291Q725 343 720.50 397.50Q716 452 716 508Q716 584 725 664L728 691L718 689Q574 662 425 662Q360 662 294.50 667Q229 672 163 682L150 684L152 673Q179 532 179 384Q179 251 158 116L157 110L168 112Q304 136 457 136Q552 136 648 126.50Q744 117 842 98L843 75Q752 84 664 84Q407 84 138 1L138 1M339 311L336 281L342 282Q383 290 421.50 294Q460 298 494 299L540 300L538 317Q526 397 535 475L540 525L533 524Q486 514 425 514Q392 514 361 517L330 520L331 511Q343 446 343 385Q343 366 342 348Q341 330 339 311Z"  horiz-adv-x="883" vert-adv-y="1000"  />

      
      <glyph glyph-name="uni41" unicode="&#x41;" d="M198 0L168 9Q163 75 204 257L210 284L209 284Q119 284 41 311L40 339Q81 334 126 330.50Q171 327 220 326L220 326L233 374Q313 668 408 800L512 777Q505 767 497.50 755Q490 743 480 729L466 707L467 703Q499 573 515 524Q529 478 544.50 438.50Q560 399 577 367L579 362L582 362Q666 380 770 415L764 321Q714 302 632 291L617 289L617 288Q652 218 776 39L671 15Q603 110 554 241L539 281L527 280Q503 278 477 277Q451 276 423 276Q381 276 352.50 276.50Q324 277 309 278L264 281L253 245Q237 192 223 130.50Q209 69 198 0M308 403L279 326L310 326Q404 326 490 344L514 349L492 417Q482 445 474 475.50Q466 506 458 539Q454 558 449 586Q444 614 436 652L435 657L421 634Q351 516 308 403Z"  horiz-adv-x="816" vert-adv-y="1000"  />

      
      <glyph glyph-name="uni42" unicode="&#x42;" d="M110 0L81 1Q95 89 102.50 163.50Q110 238 110 300Q110 354 107 392L99 492Q94 560 79.50 637Q65 714 40 800L40 800Q80 796 167 773L171 772L172 772L205 761Q384 702 454 588L469 564L453 545Q449 540 443.50 533.50Q438 527 431 519L416 503L409 496Q318 405 234 384L230 383L247 375Q378 313 430 229L433 225L443 209L439 205Q424 184 417 177L394 152L394 151Q331 76 240 35Q206 19 173.50 10.50Q141 2 110 0M134 90L126 60L150 62Q290 74 380 167L384 172L375 191Q317 314 188 369L181 372L180 372L177 335Q172 275 161 213.50Q150 152 134 90M185 429L212 433Q309 446 375 502L404 526L394 546Q324 684 196 736L176 744L179 719Q184 673 187 629Q190 585 190 543Q190 523 188.50 494.50Q187 466 185 429Z"  horiz-adv-x="509" vert-adv-y="1000"  />

      
      <glyph glyph-name="uni43" unicode="&#x43;" d="M68 0L75 72L101 77L97 90Q40 274 40 506Q40 605 58 743L61 766L62 787Q196 763 296 763Q429 763 547 800L536 728Q481 720 437.50 716Q394 712 362 712Q276 712 182 732L173 734L166 705Q112 482 112 330Q112 227 130 115L135 84L146 86Q178 91 212 94Q246 97 281 97Q412 97 539 57L539 36Q419 45 357 45Q203 45 68 0Z"  horiz-adv-x="587" vert-adv-y="1000"  />

      
      <glyph glyph-name="uni44" unicode="&#x44;" d="M130 0L100 0Q121 138 121 269Q121 521 40 782L55 800Q284 759 435 642Q563 543 588 437L588 437Q566 313 473 202Q346 51 130 0M147 68L136 25L153 31Q277 75 349 156Q381 193 410 248.50Q439 304 464 379L472 403L459 434Q370 646 191 726L182 730L183 719Q185 700 188.50 672Q192 644 196 606Q198 577 199 547.50Q200 518 200 489Q200 278 147 68Z"  horiz-adv-x="628" vert-adv-y="1000"  />

      
      <glyph glyph-name="uni45" unicode="&#x45;" d="M596 97L609 0Q437 49 282 49Q259 49 234.50 47.50Q210 46 184 44L123 38L111 3L81 6L87 32L47 26L46 47L93 60L99 90Q128 230 129 343L130 399L100 408L100 428L131 423L131 429Q131 550 107 694L104 712L88 716Q80 718 68 722Q56 726 40 730L41 751L99 742L98 747Q96 756 93.50 769.50Q91 783 87 800L223 774Q223 769 224 760.50Q225 752 225 749L226 731L247 730Q415 722 603 777L589 680Q506 668 430 668Q398 668 357 671Q316 674 266 681L228 686L228 653Q228 522 213 415L212 411L217 411Q235 409 252.50 408Q270 407 287 407Q387 407 547 453L534 361Q491 356 460.50 353Q430 350 413 350Q326 350 225 375L208 379L207 375Q187 245 144 103L134 71L142 73Q287 110 428 110Q471 110 513 107Q555 104 596 97Z"  horiz-adv-x="649" vert-adv-y="1000"  />

      
      <glyph glyph-name="uni46" unicode="&#x46;" d="M111 0L81 3Q127 188 130 339L131 394L100 403L101 423L131 418L131 424Q131 561 108 688L105 704L90 706Q82 708 70 710.50Q58 713 41 717L40 738L100 733L98 740Q96 749 93.50 762.50Q91 776 87 793L184 776Q185 772 185 765.50Q185 759 186 751L188 729L246 730Q407 733 596 800L589 703Q479 678 358 678Q327 678 294.50 680Q262 682 227 686L192 690L195 654Q198 618 198 413L198 408L217 406Q236 404 254 403Q272 402 288 402Q385 402 545 448L533 356Q490 351 459.50 348Q429 345 412 345Q372 345 325 351Q278 357 225 370L195 377L195 373Q195 232 111 0Z"  horiz-adv-x="636" vert-adv-y="1000"  />

      
      <glyph glyph-name="uni47" unicode="&#x47;" d="M453 0Q311-3 121 42Q40 225 40 419Q40 480 48 545.50Q56 611 72 682L86 744L86 750Q297 800 461 800Q534 800 579 791L580 672Q376 741 220 741Q174 741 147 738L111 734L107 706Q100 657 96.50 616.50Q93 576 93 544Q93 262 240 80L261 54L275 55Q327 59 375 68.50Q423 78 468 92L529 112L528 151Q525 254 500 333L485 382L454 378Q390 371 255 318L260 413Q300 421 348 421Q443 421 570 395L570 395L574 373Q578 356 578 301Q578 204 551 75L537 8L520 5Q508 3 491.50 2Q475 1 453 0Z"  horiz-adv-x="620" vert-adv-y="1000"  />

      
      <glyph glyph-name="uni48" unicode="&#x48;" d="M200 0L167 1Q191 139 191 254Q191 318 188 345L185 372L168 374Q120 379 88.50 385Q57 391 41 397L40 425Q85 418 133 416L181 414L178 440Q163 574 97 800L207 788Q248 651 248 463L248 412L318 412Q406 412 504 431L572 444L572 463Q572 650 613 788L723 800Q694 704 675.50 626Q657 548 649 488L645 460L646 460Q671 467 707 478Q743 489 792 504L786 407Q738 388 649 376L635 374L632 345Q629 316 629 253Q629 139 653 1L620 0Q573 115 573 346L573 368L542 365Q516 363 482.50 361.50Q449 360 409 361Q380 361 343.50 362.50Q307 364 264 366L247 367L247 346Q247 114 200 0Z"  horiz-adv-x="832" vert-adv-y="1000"  />

      
      <glyph glyph-name="uni49" unicode="&#x49;" d="M167 1L137 0Q142 57 145 108Q148 159 148 203Q148 500 40 800L180 791Q217 630 217 437Q217 230 167 1Z"  horiz-adv-x="257" vert-adv-y="1000"  />

      
      <glyph glyph-name="uni4a" unicode="&#x4a;" d="M236 0Q59 11 40 204L120 201Q140 109 169 72Q206 23 288 23Q315 23 336 26L343 27L358 109Q379 224 379 362Q379 571 323 800L456 787Q460 752 462 712Q464 672 464 626Q464 315 369 15Q293-3 236 0Z"  horiz-adv-x="504" vert-adv-y="1000"  />

      
      <glyph glyph-name="uni4b" unicode="&#x4b;" d="M70 0L40 4Q105 243 105 466Q105 619 73 800L208 769Q216 626 196 474L190 429L197 439Q335 635 531 762L606 696Q419 608 287 482L266 462L284 420Q366 228 560 58L478 19Q318 203 255 424L249 445L243 439Q218 414 201 394L179 368L168 313Q154 246 129.50 168Q105 90 70 0Z"  horiz-adv-x="646" vert-adv-y="1000"  />

      
      <glyph glyph-name="uni4c" unicode="&#x4c;" d="M353 0Q263-2 174 16L148 21L145 9L40 10Q122 232 122 494Q122 556 117 632.50Q112 709 102 800L132 799Q183 576 183 359Q183 210 156 62L154 51L178 49Q214 46 241 46Q333 46 507 106L546 26Q532 24 512 19.50Q492 15 465 10Q435 6 407 3.50Q379 1 353 0Z"  horiz-adv-x="586" vert-adv-y="1000"  />

      
      <glyph glyph-name="uni4d" unicode="&#x4d;" d="M178 0L40 26Q262 356 312 680L316 706L295 737Q282 756 268 773L352 794Q514 517 551 255L554 234L559 263Q606 533 766 800L850 777Q845 771 838 762Q831 753 822 741L810 724L816 690Q876 354 1088 35L950 10Q809 294 779 639L776 674L771 666Q646 468 585 219L566 143L567 138L543 129Q479 433 368 622L351 651L349 629Q317 283 178 0Z"  horiz-adv-x="1128" vert-adv-y="1000"  />

      
      <glyph glyph-name="uni4e" unicode="&#x4e;" d="M617 22L480 0L465 20Q401 105 333 247Q304 308 268.50 400.50Q233 493 192 618L189 627L190 621Q200 334 99 4L69 5Q86 90 94.50 174.50Q103 259 103 342Q103 565 40 800L177 780L254 585Q269 548 281 519Q293 490 301 470Q382 293 478 176L510 137L513 157Q526 240 532 308.50Q538 377 538 430Q538 515 527.50 606Q517 697 497 795L527 797Q627 500 627 202Q627 156 624.50 111Q622 66 617 22Z"  horiz-adv-x="667" vert-adv-y="1000"  />

      
      <glyph glyph-name="uni4f" unicode="&#x4f;" d="M77 0L83 70Q87 71 95 72.50Q103 74 114 76L121 77L115 94Q40 307 40 556Q40 589 43 635.50Q46 682 51 743L51 743L51 743L51 743L167 737Q339 728 517 800L513 730L501 727Q498 726 493.50 725Q489 724 482 722L479 721L489 691Q552 502 552 294Q552 269 547.50 210.50Q543 152 535 58L533 36L532 36L476 40Q441 42 411.50 43.50Q382 45 358 45Q209 45 77 0M415 84L447 78L449 88Q486 267 486 406Q486 535 459 663L448 715L443 713Q400 703 357 698.50Q314 694 271 694Q244 694 219 695.50Q194 697 171 701L158 703L155 687Q150 660 142.50 620Q135 580 127 528Q118 452 118 380Q118 282 147 116L153 83L174 87Q222 95 287 95Q321 95 352.50 92Q384 89 415 84Z"  horiz-adv-x="592" vert-adv-y="1000"  />

      
      <glyph glyph-name="uni50" unicode="&#x50;" d="M144 1L114 0Q122 81 126.50 146.50Q131 212 131 262Q131 313 125 385L121 433Q107 591 40 780L42 780L48 793Q67 797 87 798.50Q107 800 127 800Q265 800 377 718Q473 649 493 572Q467 518 397 469Q309 408 204 399L193 398L192 364Q188 192 144 1M193 466L193 429L219 435Q355 466 406 569L410 577L400 599Q341 730 173 760L162 762Q193 616 193 466Z"  horiz-adv-x="533" vert-adv-y="1000"  />

      
      <glyph glyph-name="uni51" unicode="&#x51;" d="M526-199L411-192Q362-140 312-21L302 2Q298 1 286 1L268 1Q178 1 40 42L40 64L92 60L90 85Q83 147 80 198Q77 249 77 287Q77 411 98.50 533.50Q120 656 162 779L162 779Q284 800 361 800Q496 800 640 756L640 735L598 740L600 716Q603 686 605 650.50Q607 615 607 573Q607 452 586.50 329.50Q566 207 526 85L507 29L492 25Q488 24 468.50 20.50Q449 17 418 12Q410 11 395 9.50Q380 8 361 5L343 4L347-3Q376-50 420-99.50Q464-149 526-199M174 131L190 55L215 55L272 55L282 56L282 57Q279 68 274 83Q269 98 262 120L273 126Q276 118 282 108Q288 98 295 84L310 59L331 60Q401 63 482 90L491 94L496 116Q526 251 526 389Q526 558 488 710L478 750L461 751Q448 752 436 752.50Q424 753 412 753Q310 753 217 725L179 714L172 685Q142 548 142 412Q142 344 150 273.50Q158 203 174 131Z"  horiz-adv-x="680" vert-adv-y="1000"  />

      
      <glyph glyph-name="uni52" unicode="&#x52;" d="M566 4L437 0Q286 164 191 414L188 422L187 365Q185 246 172 150Q167 109 159 75Q151 41 141 13L109 14Q120 81 126 143.50Q132 206 132 265Q132 353 120 446L119 448L113 493L104 541Q96 588 79.50 652.50Q63 717 40 800L122 791Q184 786 284 773Q399 742 459 656L473 636L488 613L453 572L435 554Q336 455 241 444L207 440Q328 200 566 4M185 541L187 497L220 500Q279 505 316 523Q325 528 340 538Q355 548 371.50 560Q388 572 404 583Q420 594 430 600L413 619Q353 686 294 715Q258 732 184 751L156 758L160 743Q179 675 185 541Z"  horiz-adv-x="606" vert-adv-y="1000"  />

      
      <glyph glyph-name="uni53" unicode="&#x53;" d="M236 0Q122 2 48 35L85 130Q208 43 343 43Q350 43 395 46L410 47L428 74Q504 190 515 260L519 288L481 311Q416 352 340 381Q254 415 164 415Q154 415 116 412L78 409L75 417L74 421L68 439Q40 520 40 604Q40 684 67 745Q217 800 362 800Q474 800 558 765L519 654Q445 707 378 730.50Q311 754 247 754Q238 754 229 753.50Q220 753 210 752L201 751L181 723Q88 592 88 485Q88 471 89 458.50Q90 446 92 436L94 425L114 430Q187 449 276 449Q400 449 525 401L525 398Q563 286 563 192Q563 110 539 55L539 55Q383-2 236 0Z"  horiz-adv-x="603" vert-adv-y="1000"  />

      
      <glyph glyph-name="uni54" unicode="&#x54;" d="M422 8L295 0Q395 273 395 527Q395 561 394 588.50Q393 616 391 637L386 689L345 689Q204 689 41 727L40 750Q158 735 267 735Q494 735 684 800L678 720Q631 710 569.50 703Q508 696 433 691L418 690L424 662Q458 507 458 334Q458 172 422 8Z"  horiz-adv-x="724" vert-adv-y="1000"  />

      
      <glyph glyph-name="uni55" unicode="&#x55;" d="M363 0Q259 0 179 18L144 26Q40 336 40 631Q40 718 49 800L185 798Q130 579 130 384Q130 239 155 123L170 50L190 48Q195 47 199.50 47Q204 47 209 47L228 47Q304 47 420 80L427 82L441 120Q530 364 530 649Q530 674 528.50 712Q527 750 525 800L554 797Q588 624 588 437Q588 202 542 42L535 17Q444 0 363 0Z"  horiz-adv-x="628" vert-adv-y="1000"  />

      
      <glyph glyph-name="uni56" unicode="&#x56;" d="M421 0L292 13Q154 214 93 440Q77 498 63 589Q57 627 51 664.50Q45 702 40 740L167 800Q179 449 289 202L323 126L326 139Q399 452 654 773L682 761Q465 415 421 0Z"  horiz-adv-x="722" vert-adv-y="1000"  />

      
      <glyph glyph-name="uni57" unicode="&#x57;" d="M391 0L286 18L286 19Q110 272 64 562L52 646L40 729L164 787Q174 447 283 204L308 148L310 161Q349 414 520 678L520 678L622 694Q643 370 783 110L811 58L835 117Q936 367 936 682Q936 740 933 800L1061 753Q1033 384 828 20L799 27Q615 277 537 602L531 627L517 598Q396 348 391 0Z"  horiz-adv-x="1101" vert-adv-y="1000"  />

      
      <glyph glyph-name="uni58" unicode="&#x58;" d="M67 0L40 16Q169 177 225 280L266 353L254 373Q201 461 158 556Q115 651 81 753L107 770Q148 678 186 607Q224 536 258 485L302 419L306 427Q353 521 386.50 614.50Q420 708 440 800L528 736Q511 687 492 640.50Q473 594 451 549Q435 515 412 473Q389 431 359 380L345 356L352 347Q495 164 623 57L526 8Q468 69 416 134.50Q364 200 318 271L304 292L292 274Q243 201 187 132.50Q131 64 67 0Z"  horiz-adv-x="663" vert-adv-y="1000"  />

      
      <glyph glyph-name="uni59" unicode="&#x59;" d="M293 4L267 0Q266 20 265 51Q264 82 263 122Q260 212 260 242Q260 312 266 362L269 387L244 411Q213 440 185 476Q157 512 131 554Q94 616 71 676Q66 690 58 712Q50 734 40 763L137 800Q144 766 155 716.50Q166 667 182 601Q208 501 256 436L272 414L280 461Q311 645 462 797L552 726Q437 620 381 499Q334 397 318 264Q314 220 307.50 155Q301 90 293 4Z"  horiz-adv-x="592" vert-adv-y="1000"  />

      
      <glyph glyph-name="uni5a" unicode="&#x5a;" d="M40 0L47 38Q141 260 280 464Q336 547 390 614Q444 681 495 732L500 738L458 735Q284 723 97 678L115 786Q164 793 215 796.50Q266 800 319 800Q414 800 509 789.50Q604 779 698 757L698 738Q611 679 527.50 604Q444 529 365 440Q292 359 229 272Q166 185 111 93L85 49L135 63Q318 115 510 115Q531 115 553.50 113.50Q576 112 600 110L611 6Q500 33 360 33Q202 33 40 0Z"  horiz-adv-x="738" vert-adv-y="1000"  />

      
      <glyph glyph-name="uni5b" unicode="&#x5b;" d="M246 0Q188 1 101 24Q40 240 40 486Q40 652 65 792L65 792Q90 796 111.50 798Q133 800 152 800L160 800L183 799Q202 798 233 792.50Q264 787 305 776L305 766Q258 774 223 775Q206 776 192 775.50Q178 775 165 773L152 771L137 714Q96 555 96 382Q96 320 101 253.50Q106 187 116 116L128 30L132 30Q170 24 193 24Q243 24 317 49L324 8Q298 4 278.50 2Q259 0 246 0Z"  horiz-adv-x="364" vert-adv-y="1000"  />

      
      <glyph glyph-name="uni5c" unicode="&#x5c;" d="M448 0L476 14Q237 361 171 800L40 759Q164 326 448 0Z"  horiz-adv-x="516" vert-adv-y="1000"  />

      
      <glyph glyph-name="uni5d" unicode="&#x5d;" d="M118 0Q105 0 85.50 2Q66 4 40 8L47 49Q121 24 171 24Q194 24 232 30L236 30L249 116Q259 179 263.50 245.50Q268 312 268 382Q268 555 227 714L212 771L199 773Q177 777 142.50 775Q108 773 59 766L59 776Q102 787 132.50 792.50Q163 798 182 799L206 800L212 800Q231 800 252.50 798Q274 796 299 792L299 792L303 769Q324 648 324 488Q324 240 263 24Q176 1 118 0Z"  horiz-adv-x="364" vert-adv-y="1000"  />

      
      <glyph glyph-name="uni5f" unicode="&#x5f;" d="M491 0Q379-1 266 12Q153 25 40 52L40 73Q101 65 160 61Q219 57 277 57Q496 57 713 115L700 16Q654 8 602 4.50Q550 1 491 0Z"  horiz-adv-x="753" vert-adv-y="1000"  />

      
      <glyph glyph-name="uni61" unicode="&#x61;" d="M198 0L168 9Q163 75 204 257L210 284L209 284Q119 284 41 311L40 339Q81 334 126 330.50Q171 327 220 326L220 326L233 374Q313 668 408 800L512 777Q505 767 497.50 755Q490 743 480 729L466 707L467 703Q499 573 515 524Q529 478 544.50 438.50Q560 399 577 367L579 362L582 362Q666 380 770 415L764 321Q714 302 632 291L617 289L617 288Q652 218 776 39L671 15Q603 110 554 241L539 281L527 280Q503 278 477 277Q451 276 423 276Q381 276 352.50 276.50Q324 277 309 278L264 281L253 245Q237 192 223 130.50Q209 69 198 0M308 403L279 326L310 326Q404 326 490 344L514 349L492 417Q482 445 474 475.50Q466 506 458 539Q454 558 449 586Q444 614 436 652L435 657L421 634Q351 516 308 403Z"  horiz-adv-x="816" vert-adv-y="1000"  />

      
      <glyph glyph-name="uni62" unicode="&#x62;" d="M110 0L81 1Q95 89 102.50 163.50Q110 238 110 300Q110 354 107 392L99 492Q94 560 79.50 637Q65 714 40 800L40 800Q80 796 167 773L171 772L172 772L205 761Q384 702 454 588L469 564L453 545Q449 540 443.50 533.50Q438 527 431 519L416 503L409 496Q318 405 234 384L230 383L247 375Q378 313 430 229L433 225L443 209L439 205Q424 184 417 177L394 152L394 151Q331 76 240 35Q206 19 173.50 10.50Q141 2 110 0M134 90L126 60L150 62Q290 74 380 167L384 172L375 191Q317 314 188 369L181 372L180 372L177 335Q172 275 161 213.50Q150 152 134 90M185 429L212 433Q309 446 375 502L404 526L394 546Q324 684 196 736L176 744L179 719Q184 673 187 629Q190 585 190 543Q190 523 188.50 494.50Q187 466 185 429Z"  horiz-adv-x="509" vert-adv-y="1000"  />

      
      <glyph glyph-name="uni63" unicode="&#x63;" d="M68 0L75 72L101 77L97 90Q40 274 40 506Q40 605 58 743L61 766L62 787Q196 763 296 763Q429 763 547 800L536 728Q481 720 437.50 716Q394 712 362 712Q276 712 182 732L173 734L166 705Q112 482 112 330Q112 227 130 115L135 84L146 86Q178 91 212 94Q246 97 281 97Q412 97 539 57L539 36Q419 45 357 45Q203 45 68 0Z"  horiz-adv-x="587" vert-adv-y="1000"  />

      
      <glyph glyph-name="uni64" unicode="&#x64;" d="M130 0L100 0Q121 138 121 269Q121 521 40 782L55 800Q284 759 435 642Q563 543 588 437L588 437Q566 313 473 202Q346 51 130 0M147 68L136 25L153 31Q277 75 349 156Q381 193 410 248.50Q439 304 464 379L472 403L459 434Q370 646 191 726L182 730L183 719Q185 700 188.50 672Q192 644 196 606Q198 577 199 547.50Q200 518 200 489Q200 278 147 68Z"  horiz-adv-x="628" vert-adv-y="1000"  />

      
      <glyph glyph-name="uni65" unicode="&#x65;" d="M596 97L609 0Q437 49 282 49Q259 49 234.50 47.50Q210 46 184 44L123 38L111 3L81 6L87 32L47 26L46 47L93 60L99 90Q128 230 129 343L130 399L100 408L100 428L131 423L131 429Q131 550 107 694L104 712L88 716Q80 718 68 722Q56 726 40 730L41 751L99 742L98 747Q96 756 93.50 769.50Q91 783 87 800L223 774Q223 769 224 760.50Q225 752 225 749L226 731L247 730Q415 722 603 777L589 680Q506 668 430 668Q398 668 357 671Q316 674 266 681L228 686L228 653Q228 522 213 415L212 411L217 411Q235 409 252.50 408Q270 407 287 407Q387 407 547 453L534 361Q491 356 460.50 353Q430 350 413 350Q326 350 225 375L208 379L207 375Q187 245 144 103L134 71L142 73Q287 110 428 110Q471 110 513 107Q555 104 596 97Z"  horiz-adv-x="649" vert-adv-y="1000"  />

      
      <glyph glyph-name="uni66" unicode="&#x66;" d="M111 0L81 3Q127 188 130 339L131 394L100 403L101 423L131 418L131 424Q131 561 108 688L105 704L90 706Q82 708 70 710.50Q58 713 41 717L40 738L100 733L98 740Q96 749 93.50 762.50Q91 776 87 793L184 776Q185 772 185 765.50Q185 759 186 751L188 729L246 730Q407 733 596 800L589 703Q479 678 358 678Q327 678 294.50 680Q262 682 227 686L192 690L195 654Q198 618 198 413L198 408L217 406Q236 404 254 403Q272 402 288 402Q385 402 545 448L533 356Q490 351 459.50 348Q429 345 412 345Q372 345 325 351Q278 357 225 370L195 377L195 373Q195 232 111 0Z"  horiz-adv-x="636" vert-adv-y="1000"  />

      
      <glyph glyph-name="uni67" unicode="&#x67;" d="M453 0Q311-3 121 42Q40 225 40 419Q40 480 48 545.50Q56 611 72 682L86 744L86 750Q297 800 461 800Q534 800 579 791L580 672Q376 741 220 741Q174 741 147 738L111 734L107 706Q100 657 96.50 616.50Q93 576 93 544Q93 262 240 80L261 54L275 55Q327 59 375 68.50Q423 78 468 92L529 112L528 151Q525 254 500 333L485 382L454 378Q390 371 255 318L260 413Q300 421 348 421Q443 421 570 395L570 395L574 373Q578 356 578 301Q578 204 551 75L537 8L520 5Q508 3 491.50 2Q475 1 453 0Z"  horiz-adv-x="620" vert-adv-y="1000"  />

      
      <glyph glyph-name="uni68" unicode="&#x68;" d="M200 0L167 1Q191 139 191 254Q191 318 188 345L185 372L168 374Q120 379 88.50 385Q57 391 41 397L40 425Q85 418 133 416L181 414L178 440Q163 574 97 800L207 788Q248 651 248 463L248 412L318 412Q406 412 504 431L572 444L572 463Q572 650 613 788L723 800Q694 704 675.50 626Q657 548 649 488L645 460L646 460Q671 467 707 478Q743 489 792 504L786 407Q738 388 649 376L635 374L632 345Q629 316 629 253Q629 139 653 1L620 0Q573 115 573 346L573 368L542 365Q516 363 482.50 361.50Q449 360 409 361Q380 361 343.50 362.50Q307 364 264 366L247 367L247 346Q247 114 200 0Z"  horiz-adv-x="832" vert-adv-y="1000"  />

      
      <glyph glyph-name="uni69" unicode="&#x69;" d="M167 1L137 0Q142 57 145 108Q148 159 148 203Q148 500 40 800L180 791Q217 630 217 437Q217 230 167 1Z"  horiz-adv-x="257" vert-adv-y="1000"  />

      
      <glyph glyph-name="uni6a" unicode="&#x6a;" d="M236 0Q59 11 40 204L120 201Q140 109 169 72Q206 23 288 23Q315 23 336 26L343 27L358 109Q379 224 379 362Q379 571 323 800L456 787Q460 752 462 712Q464 672 464 626Q464 315 369 15Q293-3 236 0Z"  horiz-adv-x="504" vert-adv-y="1000"  />

      
      <glyph glyph-name="uni6b" unicode="&#x6b;" d="M70 0L40 4Q105 243 105 466Q105 619 73 800L208 769Q216 626 196 474L190 429L197 439Q335 635 531 762L606 696Q419 608 287 482L266 462L284 420Q366 228 560 58L478 19Q318 203 255 424L249 445L243 439Q218 414 201 394L179 368L168 313Q154 246 129.50 168Q105 90 70 0Z"  horiz-adv-x="646" vert-adv-y="1000"  />

      
      <glyph glyph-name="uni6c" unicode="&#x6c;" d="M353 0Q263-2 174 16L148 21L145 9L40 10Q122 232 122 494Q122 556 117 632.50Q112 709 102 800L132 799Q183 576 183 359Q183 210 156 62L154 51L178 49Q214 46 241 46Q333 46 507 106L546 26Q532 24 512 19.50Q492 15 465 10Q435 6 407 3.50Q379 1 353 0Z"  horiz-adv-x="586" vert-adv-y="1000"  />

      
      <glyph glyph-name="uni6d" unicode="&#x6d;" d="M178 0L40 26Q262 356 312 680L316 706L295 737Q282 756 268 773L352 794Q514 517 551 255L554 234L559 263Q606 533 766 800L850 777Q845 771 838 762Q831 753 822 741L810 724L816 690Q876 354 1088 35L950 10Q809 294 779 639L776 674L771 666Q646 468 585 219L566 143L567 138L543 129Q479 433 368 622L351 651L349 629Q317 283 178 0Z"  horiz-adv-x="1128" vert-adv-y="1000"  />

      
      <glyph glyph-name="uni6e" unicode="&#x6e;" d="M617 22L480 0L465 20Q401 105 333 247Q304 308 268.50 400.50Q233 493 192 618L189 627L190 621Q200 334 99 4L69 5Q86 90 94.50 174.50Q103 259 103 342Q103 565 40 800L177 780L254 585Q269 548 281 519Q293 490 301 470Q382 293 478 176L510 137L513 157Q526 240 532 308.50Q538 377 538 430Q538 515 527.50 606Q517 697 497 795L527 797Q627 500 627 202Q627 156 624.50 111Q622 66 617 22Z"  horiz-adv-x="667" vert-adv-y="1000"  />

      
      <glyph glyph-name="uni6f" unicode="&#x6f;" d="M77 0L83 70Q87 71 95 72.50Q103 74 114 76L121 77L115 94Q40 307 40 556Q40 589 43 635.50Q46 682 51 743L51 743L51 743L51 743L167 737Q339 728 517 800L513 730L501 727Q498 726 493.50 725Q489 724 482 722L479 721L489 691Q552 502 552 294Q552 269 547.50 210.50Q543 152 535 58L533 36L532 36L476 40Q441 42 411.50 43.50Q382 45 358 45Q209 45 77 0M415 84L447 78L449 88Q486 267 486 406Q486 535 459 663L448 715L443 713Q400 703 357 698.50Q314 694 271 694Q244 694 219 695.50Q194 697 171 701L158 703L155 687Q150 660 142.50 620Q135 580 127 528Q118 452 118 380Q118 282 147 116L153 83L174 87Q222 95 287 95Q321 95 352.50 92Q384 89 415 84Z"  horiz-adv-x="592" vert-adv-y="1000"  />

      
      <glyph glyph-name="uni70" unicode="&#x70;" d="M144 1L114 0Q122 81 126.50 146.50Q131 212 131 262Q131 313 125 385L121 433Q107 591 40 780L42 780L48 793Q67 797 87 798.50Q107 800 127 800Q265 800 377 718Q473 649 493 572Q467 518 397 469Q309 408 204 399L193 398L192 364Q188 192 144 1M193 466L193 429L219 435Q355 466 406 569L410 577L400 599Q341 730 173 760L162 762Q193 616 193 466Z"  horiz-adv-x="533" vert-adv-y="1000"  />

      
      <glyph glyph-name="uni71" unicode="&#x71;" d="M526-199L411-192Q362-140 312-21L302 2Q298 1 286 1L268 1Q178 1 40 42L40 64L92 60L90 85Q83 147 80 198Q77 249 77 287Q77 411 98.50 533.50Q120 656 162 779L162 779Q284 800 361 800Q496 800 640 756L640 735L598 740L600 716Q603 686 605 650.50Q607 615 607 573Q607 452 586.50 329.50Q566 207 526 85L507 29L492 25Q488 24 468.50 20.50Q449 17 418 12Q410 11 395 9.50Q380 8 361 5L343 4L347-3Q376-50 420-99.50Q464-149 526-199M174 131L190 55L215 55L272 55L282 56L282 57Q279 68 274 83Q269 98 262 120L273 126Q276 118 282 108Q288 98 295 84L310 59L331 60Q401 63 482 90L491 94L496 116Q526 251 526 389Q526 558 488 710L478 750L461 751Q448 752 436 752.50Q424 753 412 753Q310 753 217 725L179 714L172 685Q142 548 142 412Q142 344 150 273.50Q158 203 174 131Z"  horiz-adv-x="680" vert-adv-y="1000"  />

      
      <glyph glyph-name="uni72" unicode="&#x72;" d="M566 4L437 0Q286 164 191 414L188 422L187 365Q185 246 172 150Q167 109 159 75Q151 41 141 13L109 14Q120 81 126 143.50Q132 206 132 265Q132 353 120 446L119 448L113 493L104 541Q96 588 79.50 652.50Q63 717 40 800L122 791Q184 786 284 773Q399 742 459 656L473 636L488 613L453 572L435 554Q336 455 241 444L207 440Q328 200 566 4M185 541L187 497L220 500Q279 505 316 523Q325 528 340 538Q355 548 371.50 560Q388 572 404 583Q420 594 430 600L413 619Q353 686 294 715Q258 732 184 751L156 758L160 743Q179 675 185 541Z"  horiz-adv-x="606" vert-adv-y="1000"  />

      
      <glyph glyph-name="uni73" unicode="&#x73;" d="M236 0Q122 2 48 35L85 130Q208 43 343 43Q350 43 395 46L410 47L428 74Q504 190 515 260L519 288L481 311Q416 352 340 381Q254 415 164 415Q154 415 116 412L78 409L75 417L74 421L68 439Q40 520 40 604Q40 684 67 745Q217 800 362 800Q474 800 558 765L519 654Q445 707 378 730.50Q311 754 247 754Q238 754 229 753.50Q220 753 210 752L201 751L181 723Q88 592 88 485Q88 471 89 458.50Q90 446 92 436L94 425L114 430Q187 449 276 449Q400 449 525 401L525 398Q563 286 563 192Q563 110 539 55L539 55Q383-2 236 0Z"  horiz-adv-x="603" vert-adv-y="1000"  />

      
      <glyph glyph-name="uni74" unicode="&#x74;" d="M422 8L295 0Q395 273 395 527Q395 561 394 588.50Q393 616 391 637L386 689L345 689Q204 689 41 727L40 750Q158 735 267 735Q494 735 684 800L678 720Q631 710 569.50 703Q508 696 433 691L418 690L424 662Q458 507 458 334Q458 172 422 8Z"  horiz-adv-x="724" vert-adv-y="1000"  />

      
      <glyph glyph-name="uni75" unicode="&#x75;" d="M363 0Q259 0 179 18L144 26Q40 336 40 631Q40 718 49 800L185 798Q130 579 130 384Q130 239 155 123L170 50L190 48Q195 47 199.50 47Q204 47 209 47L228 47Q304 47 420 80L427 82L441 120Q530 364 530 649Q530 674 528.50 712Q527 750 525 800L554 797Q588 624 588 437Q588 202 542 42L535 17Q444 0 363 0Z"  horiz-adv-x="628" vert-adv-y="1000"  />

      
      <glyph glyph-name="uni76" unicode="&#x76;" d="M421 0L292 13Q154 214 93 440Q77 498 63 589Q57 627 51 664.50Q45 702 40 740L167 800Q179 449 289 202L323 126L326 139Q399 452 654 773L682 761Q465 415 421 0Z"  horiz-adv-x="722" vert-adv-y="1000"  />

      
      <glyph glyph-name="uni77" unicode="&#x77;" d="M391 0L286 18L286 19Q110 272 64 562L52 646L40 729L164 787Q174 447 283 204L308 148L310 161Q349 414 520 678L520 678L622 694Q643 370 783 110L811 58L835 117Q936 367 936 682Q936 740 933 800L1061 753Q1033 384 828 20L799 27Q615 277 537 602L531 627L517 598Q396 348 391 0Z"  horiz-adv-x="1101" vert-adv-y="1000"  />

      
      <glyph glyph-name="uni78" unicode="&#x78;" d="M67 0L40 16Q169 177 225 280L266 353L254 373Q201 461 158 556Q115 651 81 753L107 770Q148 678 186 607Q224 536 258 485L302 419L306 427Q353 521 386.50 614.50Q420 708 440 800L528 736Q511 687 492 640.50Q473 594 451 549Q435 515 412 473Q389 431 359 380L345 356L352 347Q495 164 623 57L526 8Q468 69 416 134.50Q364 200 318 271L304 292L292 274Q243 201 187 132.50Q131 64 67 0Z"  horiz-adv-x="663" vert-adv-y="1000"  />

      
      <glyph glyph-name="uni79" unicode="&#x79;" d="M293 4L267 0Q266 20 265 51Q264 82 263 122Q260 212 260 242Q260 312 266 362L269 387L244 411Q213 440 185 476Q157 512 131 554Q94 616 71 676Q66 690 58 712Q50 734 40 763L137 800Q144 766 155 716.50Q166 667 182 601Q208 501 256 436L272 414L280 461Q311 645 462 797L552 726Q437 620 381 499Q334 397 318 264Q314 220 307.50 155Q301 90 293 4Z"  horiz-adv-x="592" vert-adv-y="1000"  />

      
      <glyph glyph-name="uni7a" unicode="&#x7a;" d="M40 0L47 38Q141 260 280 464Q336 547 390 614Q444 681 495 732L500 738L458 735Q284 723 97 678L115 786Q164 793 215 796.50Q266 800 319 800Q414 800 509 789.50Q604 779 698 757L698 738Q611 679 527.50 604Q444 529 365 440Q292 359 229 272Q166 185 111 93L85 49L135 63Q318 115 510 115Q531 115 553.50 113.50Q576 112 600 110L611 6Q500 33 360 33Q202 33 40 0Z"  horiz-adv-x="738" vert-adv-y="1000"  />

      
      <glyph glyph-name="uniab" unicode="&#xab;" d="M431 13L419 0Q280 171 98 261L40 290L64 325Q189 507 365 617L426 562Q334 521 262 471.50Q190 422 137 366L112 339L116 336Q323 181 431 13M689 13L677 0Q537 172 357 261L299 290Q432 498 623 617L685 562Q499 477 396 366L371 339L375 336Q579 183 689 13Z"  horiz-adv-x="729" vert-adv-y="1000"  />

      
      <glyph glyph-name="uniac" unicode="&#xac;" d="M539 195Q538 180 536.50 165Q535 150 533 133Q530 118 527.50 107.50Q525 97 523 89L475 110Q511 206 501 246Q501 261 496 284L495 297L489 296Q412 288 323 288Q192 288 58 316L57 332Q112 326 158 323.50Q204 321 241 321Q399 321 533 366L534 308L526 307L529 293Q540 244 539 195Z"  horiz-adv-x="603" vert-adv-y="1000"  />

      
      <glyph glyph-name="unib0" unicode="&#xb0;" d="M83 597L81 597L84 588L76 588L72 599L64 601Q55 601 48 605L44 653L58 645L56 654Q51 679 49.50 704Q48 729 52 754L53 761L40 757L40 765L55 770L56 773Q57 776 57.50 780.50Q58 785 60 790L108 793L103 784L106 785Q150 796 185 791L210 788L207 800L215 800L219 786L242 781L245 733L233 740L235 734Q246 690 238 634L237 626L249 629L249 621L235 616L235 615Q235 613 231 598L182 595L186 602L183 601Q175 599 161.50 597Q148 595 128 594Q104 592 83 597M171 616L196 618L206 642Q224 685 218 748L218 748L216 749Q176 771 119 769L94 768L85 746Q64 695 73 640L73 637L92 629Q129 613 171 616Z"  horiz-adv-x="289" vert-adv-y="1000"  />

      
      <glyph glyph-name="unib1" unicode="&#xb1;" d="M236 212L218 213Q230 267 238 310.50Q246 354 249 386L253 442L211 445Q200 446 182.50 446.50Q165 447 140 447Q98 446 43 442L44 460Q154 482 238 482L254 482L254 500Q254 541 249 587.50Q244 634 232 686L303 692Q305 668 306 645Q307 622 307 599Q306 553 301 509L299 482L304 482Q349 482 400 474.50Q451 467 508 453L490 380Q396 421 320 433L293 437L287 408Q278 355 265 306Q252 257 236 212M495 187L504 108Q352 155 207 155Q128 155 46 141L46 158Q195 200 342 200Q382 200 420 196.50Q458 193 495 187Z"  horiz-adv-x="539" vert-adv-y="1000"  />

      
      <glyph glyph-name="unibb" unicode="&#xbb;" d="M52 0L40 13Q148 181 355 336L359 339L333 366Q222 480 45 562L106 617Q283 505 407 325L431 290L430 290L373 261Q188 166 52 0M311 0L299 13Q353 98 431.50 178.50Q510 259 613 336L617 339L592 366Q489 477 303 562L365 617Q552 500 666 325L689 290L631 261Q451 172 311 0Z"  horiz-adv-x="729" vert-adv-y="1000"  />

      
      <glyph glyph-name="uni0401" unicode="&#x0401;" d="M596 97L608 0Q439 49 282 49Q256 49 232.50 48Q209 47 184 44L123 38L110 2L81 6L87 32L47 26L46 47L93 60L99 90Q130 233 130 343L130 399L99 408L100 428L131 423L131 429Q131 510 107 694L104 712L88 716Q80 717 68 721.50Q56 726 40 730L41 751L99 742L98 747Q96 749 87 800L222 774Q222 770 223 763.50Q224 757 225 749L226 731L247 730Q401 721 602 778L590 680Q506 668 431 668Q347 668 267 680L227 687L229 653Q231 593 227 533.50Q223 474 213 415L213 412L217 410Q253 407 287 407Q385 407 547 452L534 361Q494 356 464 353Q434 350 412 350Q377 350 330.50 356.50Q284 363 225 375L208 378L208 375Q200 322 184.50 254Q169 186 144 104L134 70L141 73Q252 108 431 108Q471 108 512 105.50Q553 103 596 97M291 901L203 897Q198 915 191 936Q184 957 176 980L279 974Q287 942 291 901M495 903L405 907Q411 953 418 980L522 986Q514 961 507 941Q500 921 495 903Z"  horiz-adv-x="648" vert-adv-y="1000"  />

      
      <glyph glyph-name="uni0410" unicode="&#x0410;" d="M198 0L168 9Q163 75 204 257L210 284L209 284Q119 284 41 311L40 339Q81 334 126 330.50Q171 327 220 326L220 326L233 374Q313 668 408 800L512 777Q505 767 497.50 755Q490 743 480 729L466 707L467 703Q499 573 515 524Q529 478 544.50 438.50Q560 399 577 367L579 362L582 362Q666 380 770 415L764 321Q714 302 632 291L617 289L617 288Q652 218 776 39L671 15Q603 110 554 241L539 281L527 280Q503 278 477 277Q451 276 423 276Q381 276 352.50 276.50Q324 277 309 278L264 281L253 245Q237 192 223 130.50Q209 69 198 0M308 403L279 326L310 326Q404 326 490 344L514 349L492 417Q482 445 474 475.50Q466 506 458 539Q454 558 449 586Q444 614 436 652L435 657L421 634Q351 516 308 403Z"  horiz-adv-x="816" vert-adv-y="1000"  />

      
      <glyph glyph-name="uni0411" unicode="&#x0411;" d="M278 0Q228 0 184 3Q170 4 149 6Q128 8 100 11L89 13L40 13Q119 217 119 364L119 378L114 379Q104 381 93 384Q82 387 71 391L70 412L120 405L122 446Q124 484 120.50 547Q117 610 109 698L105 740L72 750L73 769L103 764L100 800L132 798L139 758L194 752Q213 750 234 749Q255 748 279 748Q412 748 566 793L555 704Q513 699 477 696Q441 693 410 693Q277 693 156 726L145 729L146 725Q156 678 170 573Q174 539 176 502.50Q178 466 180 425L181 397L186 397Q217 393 245 391Q273 389 298 389Q416 389 533 436L533 436L533 436L545 437Q562 364 570.50 291Q579 218 579 145Q579 84 573 29L573 29Q416 0 278 0M436 47L476 47L483 75Q487 88 492.50 109.50Q498 131 505 162Q510 181 516 211Q522 241 530 284L534 320L523 318Q518 317 506.50 316.50Q495 316 478 316Q363 316 194 359L182 362L182 324Q182 211 165 103L164 97L220 82Q354 47 436 47Z"  horiz-adv-x="619" vert-adv-y="1000"  />

      
      <glyph glyph-name="uni0412" unicode="&#x0412;" d="M110 0L81 1Q95 89 102.50 163.50Q110 238 110 300Q110 354 107 392L99 492Q94 560 79.50 637Q65 714 40 800L40 800Q80 796 167 773L171 772L172 772L205 761Q384 702 454 588L469 564L453 545Q449 540 443.50 533.50Q438 527 431 519L416 503L409 496Q318 405 234 384L230 383L247 375Q378 313 430 229L433 225L443 209L439 205Q424 184 417 177L394 152L394 151Q331 76 240 35Q206 19 173.50 10.50Q141 2 110 0M134 90L126 60L150 62Q290 74 380 167L384 172L375 191Q317 314 188 369L181 372L180 372L177 335Q172 275 161 213.50Q150 152 134 90M185 429L212 433Q309 446 375 502L404 526L394 546Q324 684 196 736L176 744L179 719Q184 673 187 629Q190 585 190 543Q190 523 188.50 494.50Q187 466 185 429Z"  horiz-adv-x="509" vert-adv-y="1000"  />

      
      <glyph glyph-name="uni0413" unicode="&#x0413;" d="M98 0L68 2Q93 121 105 223Q117 325 117 408Q117 547 89 678L81 717L40 728L41 749L75 744L64 785L186 800Q187 786 192 745L193 730L242 728Q399 722 591 774L578 679Q533 674 493.50 671Q454 668 420 668Q333 668 221 686L196 690L196 676Q196 663 197.50 636.50Q199 610 199 597Q199 312 98 0Z"  horiz-adv-x="631" vert-adv-y="1000"  />

      
      <glyph glyph-name="uni0414" unicode="&#x0414;" d="M40 0L56 136Q65 137 78.50 139Q92 141 111 143L120 144L126 167Q187 401 389 704L391 707L424 751Q435 765 444.50 777.50Q454 790 462 800L489 788Q696 497 765 145L773 104L775 104L807 97Q830 92 864 82L863 53Q846 55 821 58.50Q796 62 762 66L757 66L752 64L751 67L661 74Q636 76 607.50 77Q579 78 548 78Q313 78 40 0M689 121L737 112L723 155Q640 409 427 667L422 673L405 641Q349 534 308.50 412.50Q268 291 245 154L245 154L265 154Q278 154 304 155Q330 156 343 156Q496 156 689 121Z"  horiz-adv-x="904" vert-adv-y="1000"  />

      
      <glyph glyph-name="uni0415" unicode="&#x0415;" d="M596 97L609 0Q437 49 282 49Q259 49 234.50 47.50Q210 46 184 44L123 38L111 3L81 6L87 32L47 26L46 47L93 60L99 90Q128 230 129 343L130 399L100 408L100 428L131 423L131 429Q131 550 107 694L104 712L88 716Q80 718 68 722Q56 726 40 730L41 751L99 742L98 747Q96 756 93.50 769.50Q91 783 87 800L223 774Q223 769 224 760.50Q225 752 225 749L226 731L247 730Q415 722 603 777L589 680Q506 668 430 668Q398 668 357 671Q316 674 266 681L228 686L228 653Q228 522 213 415L212 411L217 411Q235 409 252.50 408Q270 407 287 407Q387 407 547 453L534 361Q491 356 460.50 353Q430 350 413 350Q326 350 225 375L208 379L207 375Q187 245 144 103L134 71L142 73Q287 110 428 110Q471 110 513 107Q555 104 596 97Z"  horiz-adv-x="649" vert-adv-y="1000"  />

      
      <glyph glyph-name="uni0416" unicode="&#x0416;" d="M1016 91L945 0Q884 44 831 129Q758 244 755 362L754 399Q751 524 826 657Q882 756 945 799L1016 708Q959 673 917.50 641Q876 609 850 581Q779 504 770 419L768 399L770 380Q779 295 850 218Q876 190 917.50 158Q959 126 1016 91M111 1L40 92Q156 166 206 219Q270 286 285 381L288 400L285 420Q271 511 206 582Q156 635 40 709L111 800Q173 756 226 671Q301 551 301 437L301 436L330 427Q390 408 464 403L505 400L505 407Q505 399 502 457Q501 469 500.50 481Q500 493 500 506Q500 578 509 634L613 655Q597 603 586 553Q575 503 570 454L564 399L583 399Q649 399 753 418L754 399Q731 392 707.50 386Q684 380 661 376Q588 362 568 362L562 362L560 320Q558 280 561.50 231.50Q565 183 573 127L554 127Q526 229 512 334L509 359L501 358Q480 355 456 355Q408 355 308 372L301 374L301 364Q301 251 225 130Q171 43 111 1Z"  horiz-adv-x="1056" vert-adv-y="1000"  />

      
      <glyph glyph-name="uni0417" unicode="&#x0417;" d="M53 0L40 88Q182 85 250 102Q336 125 375 192L386 211L343 273Q315 314 292 341.50Q269 369 252 384Q198 432 131 440L135 455L157 464Q227 492 267 549Q272 557 279.50 570Q287 583 296 602Q303 616 313.50 639Q324 662 338 694L340 699L328 707Q229 773 117 773Q104 773 89 772Q74 771 58 769L61 786Q96 793 128.50 796.50Q161 800 192 800Q342 800 482 720L421 640Q407 621 389.50 597Q372 573 351 544Q304 494 212 462L186 453L201 452Q274 448 338 400L443 303Q438 82 206 25Q180 18 53 0Z"  horiz-adv-x="522" vert-adv-y="1000"  />

      
      <glyph glyph-name="uni0418" unicode="&#x0418;" d="M579 0L550 1Q525 107 513 211.50Q501 316 501 419Q501 468 504 514Q505 529 507 551.50Q509 574 512 603L513 609L510 601Q442 421 330 234Q288 164 251 112.50Q214 61 182 28L182 28L182 28L52 60Q40 419 201 800L229 796Q156 556 156 325Q156 287 157.50 251.50Q159 216 163 182L165 163L198 197Q288 290 367 423Q396 472 428 533Q460 594 495 668L537 756L671 764Q568 482 568 194Q568 152 571 103.50Q574 55 579 0Z"  horiz-adv-x="700" vert-adv-y="1000"  />

      
      <glyph glyph-name="uni0419" unicode="&#x0419;" d="M572 0L544 1Q520 111 507.50 215Q495 319 495 418Q495 512 507 602L507 607L504 599Q479 523 434.50 431Q390 339 326 232Q285 165 248 113.50Q211 62 177 28L177 28L177 28L47 59Q40 240 77.50 424Q115 608 195 799L224 795Q151 552 151 324Q151 306 152.50 270Q154 234 158 181L160 164L192 197Q329 336 489 666L532 753L664 762Q561 478 561 193Q561 146 564 98Q567 50 572 0M460 873Q334 873 262 954L310 1017Q409 912 504 912Q561 912 634 953L633 935Q550 873 460 873Z"  horiz-adv-x="699" vert-adv-y="1000"  />

      
      <glyph glyph-name="uni041A" unicode="&#x041A;" d="M70 0L40 4Q105 243 105 466Q105 619 73 800L208 769Q216 626 196 474L190 429L197 439Q335 635 531 762L606 696Q419 608 287 482L266 462L284 420Q366 228 560 58L478 19Q318 203 255 424L249 445L243 439Q218 414 201 394L179 368L168 313Q154 246 129.50 168Q105 90 70 0Z"  horiz-adv-x="646" vert-adv-y="1000"  />

      
      <glyph glyph-name="uni041B" unicode="&#x041B;" d="M68 0L40 10Q72 424 283 800L384 776Q375 765 367 754Q359 743 352 732L332 702L341 668Q437 304 647 42L547 15Q468 146 427 234Q344 412 310 615L303 655L294 640Q140 384 68 0Z"  horiz-adv-x="687" vert-adv-y="1000"  />

      
      <glyph glyph-name="uni041C" unicode="&#x041C;" d="M178 0L40 26Q262 356 312 680L316 706L295 737Q282 756 268 773L352 794Q514 517 551 255L554 234L559 263Q606 533 766 800L850 777Q845 771 838 762Q831 753 822 741L810 724L816 690Q876 354 1088 35L950 10Q809 294 779 639L776 674L771 666Q646 468 585 219L566 143L567 138L543 129Q479 433 368 622L351 651L349 629Q317 283 178 0Z"  horiz-adv-x="1128" vert-adv-y="1000"  />

      
      <glyph glyph-name="uni041D" unicode="&#x041D;" d="M200 0L167 1Q191 139 191 254Q191 318 188 345L185 372L168 374Q120 379 88.50 385Q57 391 41 397L40 425Q85 418 133 416L181 414L178 440Q163 574 97 800L207 788Q248 651 248 463L248 412L318 412Q406 412 504 431L572 444L572 463Q572 650 613 788L723 800Q694 704 675.50 626Q657 548 649 488L645 460L646 460Q671 467 707 478Q743 489 792 504L786 407Q738 388 649 376L635 374L632 345Q629 316 629 253Q629 139 653 1L620 0Q573 115 573 346L573 368L542 365Q516 363 482.50 361.50Q449 360 409 361Q380 361 343.50 362.50Q307 364 264 366L247 367L247 346Q247 114 200 0Z"  horiz-adv-x="832" vert-adv-y="1000"  />

      
      <glyph glyph-name="uni041E" unicode="&#x041E;" d="M77 0L83 70Q87 71 95 72.50Q103 74 114 76L121 77L115 94Q40 307 40 556Q40 589 43 635.50Q46 682 51 743L51 743L51 743L51 743L167 737Q339 728 517 800L513 730L501 727Q498 726 493.50 725Q489 724 482 722L479 721L489 691Q552 502 552 294Q552 269 547.50 210.50Q543 152 535 58L533 36L532 36L476 40Q441 42 411.50 43.50Q382 45 358 45Q209 45 77 0M415 84L447 78L449 88Q486 267 486 406Q486 535 459 663L448 715L443 713Q400 703 357 698.50Q314 694 271 694Q244 694 219 695.50Q194 697 171 701L158 703L155 687Q150 660 142.50 620Q135 580 127 528Q118 452 118 380Q118 282 147 116L153 83L174 87Q222 95 287 95Q321 95 352.50 92Q384 89 415 84Z"  horiz-adv-x="592" vert-adv-y="1000"  />

      
      <glyph glyph-name="uni041F" unicode="&#x041F;" d="M159 0L131 0Q158 186 158 341Q158 529 116 697L113 709L101 712Q91 714 76 718Q61 722 40 727L40 754L104 744L103 748Q102 750 99 762.50Q96 775 89 798L187 787Q188 779 190 766Q192 753 195 735L196 734L218 732Q297 725 366.50 724.50Q436 724 497 731L552 737L560 789L658 800Q656 792 652 779L643 750L685 758Q704 762 726.50 768Q749 774 777 782L767 692Q707 681 655 677L626 674L621 649Q592 498 592 351Q592 275 599.50 187.50Q607 100 621 2L593 2Q530 233 530 470Q530 526 533 575.50Q536 625 543 668L543 670L533 669Q470 663 372 670Q276 676 220 688L201 692L204 666Q211 610 214 556.50Q217 503 217 453Q217 214 159 0Z"  horiz-adv-x="817" vert-adv-y="1000"  />

      
      <glyph glyph-name="uni0420" unicode="&#x0420;" d="M144 1L114 0Q122 81 126.50 146.50Q131 212 131 262Q131 313 125 385L121 433Q107 591 40 780L42 780L48 793Q67 797 87 798.50Q107 800 127 800Q265 800 377 718Q473 649 493 572Q467 518 397 469Q309 408 204 399L193 398L192 364Q188 192 144 1M193 466L193 429L219 435Q355 466 406 569L410 577L400 599Q341 730 173 760L162 762Q193 616 193 466Z"  horiz-adv-x="533" vert-adv-y="1000"  />

      
      <glyph glyph-name="uni0421" unicode="&#x0421;" d="M68 0L75 72L101 77L97 90Q40 274 40 506Q40 605 58 743L61 766L62 787Q196 763 296 763Q429 763 547 800L536 728Q481 720 437.50 716Q394 712 362 712Q276 712 182 732L173 734L166 705Q112 482 112 330Q112 227 130 115L135 84L146 86Q178 91 212 94Q246 97 281 97Q412 97 539 57L539 36Q419 45 357 45Q203 45 68 0Z"  horiz-adv-x="587" vert-adv-y="1000"  />

      
      <glyph glyph-name="uni0422" unicode="&#x0422;" d="M422 8L295 0Q395 273 395 527Q395 561 394 588.50Q393 616 391 637L386 689L345 689Q204 689 41 727L40 750Q158 735 267 735Q494 735 684 800L678 720Q631 710 569.50 703Q508 696 433 691L418 690L424 662Q458 507 458 334Q458 172 422 8Z"  horiz-adv-x="724" vert-adv-y="1000"  />

      
      <glyph glyph-name="uni0423" unicode="&#x0423;" d="M67 0L40 15Q177 188 276 371L278 373L255 402Q124 567 74 760L141 800Q168 587 266 425L287 391L302 420Q392 594 434 787L520 724Q369 303 67 0Z"  horiz-adv-x="560" vert-adv-y="1000"  />

      
      <glyph glyph-name="uni0424" unicode="&#x0424;" d="M391 0L362 0Q340 79 327 150.50Q314 222 309 287L303 373L295 374Q254 379 222.50 383Q191 387 170 391Q99 404 40 418L40 441Q174 420 270 420L301 420L300 458Q297 581 309 667L310 674L284 674Q199 674 92 693L89 699L97 654Q106 603 106 546Q106 521 103 493Q100 465 95 433L40 441Q70 532 70 623Q70 649 68 676.50Q66 704 62 732L56 774L57 774L116 758Q207 735 300 729L317 728L318 736Q320 749 322 762.50Q324 776 326 789L424 800Q422 792 418 779Q414 766 410 750L404 724L462 725Q511 726 569 732Q627 738 695 748L696 725Q664 623 664 535Q664 505 667 474L668 470L677 390L658 387Q512 364 387 369L362 370L362 318Q362 254 369.50 174.50Q377 95 391 0M366 483L363 421L428 425Q471 427 510.50 433.50Q550 440 587 450L646 466L644 479Q640 498 636 525.50Q632 553 627 588Q621 644 624 680L626 708L592 700Q544 690 404 676L393 675L387 648Q370 573 366 483Z"  horiz-adv-x="736" vert-adv-y="1000"  />

      
      <glyph glyph-name="uni0425" unicode="&#x0425;" d="M67 0L40 16Q169 177 225 280L266 353L254 373Q201 461 158 556Q115 651 81 753L107 770Q148 678 186 607Q224 536 258 485L302 419L306 427Q353 521 386.50 614.50Q420 708 440 800L528 736Q511 687 492 640.50Q473 594 451 549Q435 515 412 473Q389 431 359 380L345 356L352 347Q495 164 623 57L526 8Q468 69 416 134.50Q364 200 318 271L304 292L292 274Q243 201 187 132.50Q131 64 67 0Z"  horiz-adv-x="663" vert-adv-y="1000"  />

      
      <glyph glyph-name="uni0426" unicode="&#x0426;" d="M548-355L478-285Q611-152 666 6L682 51L657 55L597 61L596 60Q594 51 587 41L578 24L547 24L561 65L486 68Q336 74 179 38L142 29L130 0L99 3L103 19L86 15Q78 12 66 9Q54 6 40 0L56 134Q70 139 79.50 141.50Q89 144 95 146L129 151L136 191Q144 236 148 288Q152 340 152 397Q152 482 140 577.50Q128 673 105 780L238 755Q251 700 251 617Q251 486 235.50 374.50Q220 263 186 173L180 157L185 157Q198 158 214.50 159Q231 160 246 160Q375 160 541 124L576 117L578 118Q611 224 627 336Q643 448 643 566Q643 617 638.50 675Q634 733 627 800L752 781Q756 757 756 714Q756 650 744 572Q732 494 709 400Q690 324 667 252Q644 180 618 110L616 108L629 106Q636 104 645 101.50Q654 99 666 95L694 87L706 124L720 110Q720 94 719 93L716 80L726 77Q729 76 733.50 74.50Q738 73 746 70L745 39L710 45L703 18Q662-134 624-227Q586-320 548-355Z"  horiz-adv-x="796" vert-adv-y="1000"  />

      
      <glyph glyph-name="uni0427" unicode="&#x0427;" d="M371 0L274 1Q364 208 385 400L388 428L347 428Q197 428 57 353L57 353L57 353L40 355Q72 483 72 598Q72 697 51 800L127 784Q128 768 128.50 752Q129 736 129 719Q129 577 82 427L82 425L107 432Q193 455 266 455Q286 455 309 453.50Q332 452 359 448L390 444L397 502Q402 545 404.50 596Q407 647 407 708Q407 730 407 752.50Q407 775 406 798L433 795Q441 736 445 675Q449 614 449 552Q449 270 371 0Z"  horiz-adv-x="489" vert-adv-y="1000"  />

      
      <glyph glyph-name="uni0428" unicode="&#x0428;" d="M75 0L95 127L104 213Q110 270 110 341Q110 557 40 800L174 782Q192 664 192 549Q192 378 144 154L141 140L156 143Q178 148 211 152Q244 156 288 160Q351 166 409 166Q419 166 438 165Q457 164 467 164L469 164L469 169Q474 210 476.50 248.50Q479 287 479 322Q479 438 435 676L553 656Q553 639 553.50 619.50Q554 600 555 577L555 552Q555 387 511 200L502 163L511 163Q643 163 801 129L830 123L837 197Q841 234 842.50 266.50Q844 299 844 327Q844 542 774 785L908 767Q926 646 926 533Q926 338 877 138L871 113L931 98Q934 97 941 95.50Q948 94 959 90L998 77L997 39Q979 44 952 48Q942 50 926 52.50Q910 55 888 58L858 61L842 6L813 7L822 66L776 71Q666 83 577 83Q318 83 75 0Z"  horiz-adv-x="1038" vert-adv-y="1000"  />

      
      <glyph glyph-name="uni0429" unicode="&#x0429;" d="M788-349L718-279Q781-214 829-141Q877-68 908 14L922 54L887 60L837 66L819 6L791 8L799 70L773 73Q656 85 578 85Q442 85 317 64.50Q192 44 74 0L95 128L105 215Q109 238 110 270Q111 302 111 342Q111 448 93.50 563Q76 678 40 800L173 783Q192 672 192 549Q192 476 180 376Q168 276 144 156L141 142L155 145Q275 166 468 166L469 166L469 171Q474 211 477 248.50Q480 286 480 322Q480 386 469 475Q458 564 434 677L553 656L553 484Q553 437 542.50 366Q532 295 510 202L501 164L510 164Q553 164 624.50 155.50Q696 147 799 129L808 128L815 199Q818 224 819.50 258Q821 292 821 327Q821 534 752 785L886 767Q904 647 904 533Q904 449 891.50 351Q879 253 856 141L851 119L865 115Q876 111 893 107Q910 103 930 98L936 95L949 134L964 118Q964 103 962 101L959 90L998 79L998 41L951 49L944 26Q928-40 912-93Q896-146 881-183Q860-244 835.50-284.50Q811-325 788-349Z"  horiz-adv-x="1038" vert-adv-y="1000"  />

      
      <glyph glyph-name="uni042A" unicode="&#x042A;" d="M370 3L367 3L287 0Q316 80 336.50 145Q357 210 370 259L382 306L392 354Q422 498 422 622Q422 644 420.50 672Q419 700 417 734L415 761L373 748Q247 708 133 708Q121 708 110.50 708.50Q100 709 91 710L40 800Q177 765 291 765Q316 765 340 766.50Q364 768 387 772L413 776L412 793L444 792Q470 711 470 527Q470 481 468.50 440Q467 399 463 363L463 356L478 354Q607 338 705 222L722 202L755 158L738 136L722 116Q631 1 433 1Q422 1 401 2Q380 3 370 3M412 50L407 35L436 39Q496 48 551 68Q615 94 678 157L697 176Q648 225 615 245Q561 279 490 292L458 298L453 252Q446 194 436 143.50Q426 93 412 50Z"  horiz-adv-x="795" vert-adv-y="1000"  />

      
      <glyph glyph-name="uni042B" unicode="&#x042B;" d="M123 9L120 9L40 0Q64 83 80.50 149Q97 215 105 263L114 312L121 360Q128 407 131 453Q134 499 134 543Q134 665 110 799L142 800Q153 774 161.50 732.50Q170 691 177 633Q184 570 188 505.50Q192 441 191 374L191 366L206 366Q331 366 442 251L460 232L495 190L481 166L466 146Q403 59 288 28Q231 12 123 9M579 7L550 8Q502 227 502 441Q502 626 538 792L648 795Q563 555 563 281Q563 221 567 152.50Q571 84 579 7M162 58L158 43L186 49Q263 69 299 86Q361 117 419 184L436 203L436 204Q410 226 388.50 241.50Q367 257 350 267Q293 296 223 305L190 308L188 263Q186 202 179.50 150.50Q173 99 162 58Z"  horiz-adv-x="688" vert-adv-y="1000"  />

      
      <glyph glyph-name="uni042C" unicode="&#x042C;" d="M110 799L142 800Q163 750 177 633Q184 571 187.50 506Q191 441 191 374L191 367L207 366Q341 358 442 251L460 232L496 190L481 166L466 146Q400 59 288 28Q222 9 123 9L120 9L40 0Q62 76 78.50 142Q95 208 105 263L114 312L121 360Q128 408 131.50 453Q135 498 135 539Q135 665 110 799M223 305L190 308L188 263Q182 140 162 58L158 43L186 49Q257 66 299 86Q365 118 419 184L436 204Q346 294 223 305Z"  horiz-adv-x="536" vert-adv-y="1000"  />

      
      <glyph glyph-name="uni042D" unicode="&#x042D;" d="M213 0Q98 0 40 16L68 121Q260 42 411 42Q420 42 429 42Q438 42 447 43L477 45L485 71Q521 188 521 322L521 364L469 371Q402 380 342 380Q262 380 183 365L156 451Q205 455 293 445Q349 438 402.50 427.50Q456 417 506 401L519 397L519 407Q519 586 417 724L403 743L378 743Q275 743 104 683L84 792Q107 796 134 798Q161 800 192 800Q342 800 500 763L535 755L541 755Q593 608 593 456Q593 281 525 92L502 29L461 21Q353 0 213 0Z"  horiz-adv-x="633" vert-adv-y="1000"  />

      
      <glyph glyph-name="uni042E" unicode="&#x042E;" d="M820 0L791 3L803 60L783 56Q664 32 594 35L570 36L574 17L545 15Q539 27 536 36L535 39L509 43Q505 44 499.50 45.50Q494 47 486 49L476 132L511 122L506 142Q495 190 486 241Q477 292 471 345L466 392L462 393Q354 420 279 420Q262 420 244.50 419Q227 418 208 416L171 412L170 409Q158 318 131 212Q115 148 100 100.50Q85 53 69 22L40 25Q65 125 77 224.50Q89 324 89 422Q89 612 46 800L178 774Q185 743 188.50 709Q192 675 192 637Q192 592 189 549Q186 506 179 466L175 441Q301 474 395 474L415 474Q419 474 423.50 474Q428 474 432 473L459 470L457 497Q455 531 453.50 559.50Q452 588 452 613Q452 630 453.50 654Q455 678 459 709L460 718L455 719Q437 722 426 729L416 800L483 778L568 792L561 758L620 748Q692 736 751 740L804 743L797 778L895 759L896 756L945 766L946 740Q939 736 930.50 732.50Q922 729 911 727L902 724L906 692Q910 660 912 629.50Q914 599 914 570Q914 517 910.50 463Q907 409 900 354Q892 294 858 127L852 98L855 99Q878 102 909 108L909 90Q897 85 885 80.50Q873 76 860 73L844 69L839 50Q835 37 830 24.50Q825 12 820 0M750 90Q765 90 803 93L811 94L811 97Q844 242 844 394Q844 464 836.50 537Q829 610 815 687L811 708L791 706Q720 699 662.50 698Q605 697 559 702L550 703L550 702Q522 574 522 424Q522 390 524 350.50Q526 311 530 265Q541 154 554 111L588 104Q664 89 750 90Z"  horiz-adv-x="986" vert-adv-y="1000"  />

      
      <glyph glyph-name="uni042F" unicode="&#x042F;" d="M169 0L40 4Q280 201 399 440L365 444Q269 455 171 554L153 572L118 613L133 636L147 656Q206 741 323 772Q390 791 484 791L487 791L566 800Q543 717 526.50 652.50Q510 588 502 541L493 493L486 446Q474 365 474 266Q474 208 480 145Q486 82 497 14L465 13Q448 57 435 150Q428 200 424 254Q420 308 419 365L418 422L415 414Q320 160 169 0M386 500L419 497L421 541Q427 675 446 743L450 758L423 751Q344 730 312 715Q253 686 193 619L176 600Q265 511 386 500Z"  horiz-adv-x="606" vert-adv-y="1000"  />

      
      <glyph glyph-name="uni0430" unicode="&#x0430;" d="M198 0L168 9Q163 75 204 257L210 284L209 284Q119 284 41 311L40 339Q81 334 126 330.50Q171 327 220 326L220 326L233 374Q313 668 408 800L512 777Q505 767 497.50 755Q490 743 480 729L466 707L467 703Q499 573 515 524Q529 478 544.50 438.50Q560 399 577 367L579 362L582 362Q666 380 770 415L764 321Q714 302 632 291L617 289L617 288Q652 218 776 39L671 15Q603 110 554 241L539 281L527 280Q503 278 477 277Q451 276 423 276Q381 276 352.50 276.50Q324 277 309 278L264 281L253 245Q237 192 223 130.50Q209 69 198 0M308 403L279 326L310 326Q404 326 490 344L514 349L492 417Q482 445 474 475.50Q466 506 458 539Q454 558 449 586Q444 614 436 652L435 657L421 634Q351 516 308 403Z"  horiz-adv-x="816" vert-adv-y="1000"  />

      
      <glyph glyph-name="uni0431" unicode="&#x0431;" d="M278 0Q228 0 184 3Q170 4 149 6Q128 8 100 11L89 13L40 13Q119 217 119 364L119 378L114 379Q104 381 93 384Q82 387 71 391L70 412L120 405L122 446Q124 484 120.50 547Q117 610 109 698L105 740L72 750L73 769L103 764L100 800L132 798L139 758L194 752Q213 750 234 749Q255 748 279 748Q412 748 566 793L555 704Q513 699 477 696Q441 693 410 693Q277 693 156 726L145 729L146 725Q156 678 170 573Q174 539 176 502.50Q178 466 180 425L181 397L186 397Q217 393 245 391Q273 389 298 389Q416 389 533 436L533 436L533 436L545 437Q562 364 570.50 291Q579 218 579 145Q579 84 573 29L573 29Q416 0 278 0M436 47L476 47L483 75Q487 88 492.50 109.50Q498 131 505 162Q510 181 516 211Q522 241 530 284L534 320L523 318Q518 317 506.50 316.50Q495 316 478 316Q363 316 194 359L182 362L182 324Q182 211 165 103L164 97L220 82Q354 47 436 47Z"  horiz-adv-x="619" vert-adv-y="1000"  />

      
      <glyph glyph-name="uni0432" unicode="&#x0432;" d="M110 0L81 1Q95 89 102.50 163.50Q110 238 110 300Q110 354 107 392L99 492Q94 560 79.50 637Q65 714 40 800L40 800Q80 796 167 773L171 772L172 772L205 761Q384 702 454 588L469 564L453 545Q449 540 443.50 533.50Q438 527 431 519L416 503L409 496Q318 405 234 384L230 383L247 375Q378 313 430 229L433 225L443 209L439 205Q424 184 417 177L394 152L394 151Q331 76 240 35Q206 19 173.50 10.50Q141 2 110 0M134 90L126 60L150 62Q290 74 380 167L384 172L375 191Q317 314 188 369L181 372L180 372L177 335Q172 275 161 213.50Q150 152 134 90M185 429L212 433Q309 446 375 502L404 526L394 546Q324 684 196 736L176 744L179 719Q184 673 187 629Q190 585 190 543Q190 523 188.50 494.50Q187 466 185 429Z"  horiz-adv-x="509" vert-adv-y="1000"  />

      
      <glyph glyph-name="uni0433" unicode="&#x0433;" d="M98 0L68 2Q93 121 105 223Q117 325 117 408Q117 547 89 678L81 717L40 728L41 749L75 744L64 785L186 800Q187 786 192 745L193 730L242 728Q399 722 591 774L578 679Q533 674 493.50 671Q454 668 420 668Q333 668 221 686L196 690L196 676Q196 663 197.50 636.50Q199 610 199 597Q199 312 98 0Z"  horiz-adv-x="631" vert-adv-y="1000"  />

      
      <glyph glyph-name="uni0434" unicode="&#x0434;" d="M40 0L56 136Q65 137 78.50 139Q92 141 111 143L120 144L126 167Q187 401 389 704L391 707L424 751Q435 765 444.50 777.50Q454 790 462 800L489 788Q696 497 765 145L773 104L775 104L807 97Q830 92 864 82L863 53Q846 55 821 58.50Q796 62 762 66L757 66L752 64L751 67L661 74Q636 76 607.50 77Q579 78 548 78Q313 78 40 0M689 121L737 112L723 155Q640 409 427 667L422 673L405 641Q349 534 308.50 412.50Q268 291 245 154L245 154L265 154Q278 154 304 155Q330 156 343 156Q496 156 689 121Z"  horiz-adv-x="904" vert-adv-y="1000"  />

      
      <glyph glyph-name="uni0435" unicode="&#x0435;" d="M596 97L609 0Q437 49 282 49Q259 49 234.50 47.50Q210 46 184 44L123 38L111 3L81 6L87 32L47 26L46 47L93 60L99 90Q128 230 129 343L130 399L100 408L100 428L131 423L131 429Q131 550 107 694L104 712L88 716Q80 718 68 722Q56 726 40 730L41 751L99 742L98 747Q96 756 93.50 769.50Q91 783 87 800L223 774Q223 769 224 760.50Q225 752 225 749L226 731L247 730Q415 722 603 777L589 680Q506 668 430 668Q398 668 357 671Q316 674 266 681L228 686L228 653Q228 522 213 415L212 411L217 411Q235 409 252.50 408Q270 407 287 407Q387 407 547 453L534 361Q491 356 460.50 353Q430 350 413 350Q326 350 225 375L208 379L207 375Q187 245 144 103L134 71L142 73Q287 110 428 110Q471 110 513 107Q555 104 596 97Z"  horiz-adv-x="649" vert-adv-y="1000"  />

      
      <glyph glyph-name="uni0436" unicode="&#x0436;" d="M1016 91L945 0Q884 44 831 129Q758 244 755 362L754 399Q751 524 826 657Q882 756 945 799L1016 708Q959 673 917.50 641Q876 609 850 581Q779 504 770 419L768 399L770 380Q779 295 850 218Q876 190 917.50 158Q959 126 1016 91M111 1L40 92Q156 166 206 219Q270 286 285 381L288 400L285 420Q271 511 206 582Q156 635 40 709L111 800Q173 756 226 671Q301 551 301 437L301 436L330 427Q390 408 464 403L505 400L505 407Q505 399 502 457Q501 469 500.50 481Q500 493 500 506Q500 578 509 634L613 655Q597 603 586 553Q575 503 570 454L564 399L583 399Q649 399 753 418L754 399Q731 392 707.50 386Q684 380 661 376Q588 362 568 362L562 362L560 320Q558 280 561.50 231.50Q565 183 573 127L554 127Q526 229 512 334L509 359L501 358Q480 355 456 355Q408 355 308 372L301 374L301 364Q301 251 225 130Q171 43 111 1Z"  horiz-adv-x="1056" vert-adv-y="1000"  />

      
      <glyph glyph-name="uni0437" unicode="&#x0437;" d="M53 0L40 88Q182 85 250 102Q336 125 375 192L386 211L343 273Q315 314 292 341.50Q269 369 252 384Q198 432 131 440L135 455L157 464Q227 492 267 549Q272 557 279.50 570Q287 583 296 602Q303 616 313.50 639Q324 662 338 694L340 699L328 707Q229 773 117 773Q104 773 89 772Q74 771 58 769L61 786Q96 793 128.50 796.50Q161 800 192 800Q342 800 482 720L421 640Q407 621 389.50 597Q372 573 351 544Q304 494 212 462L186 453L201 452Q274 448 338 400L443 303Q438 82 206 25Q180 18 53 0Z"  horiz-adv-x="522" vert-adv-y="1000"  />

      
      <glyph glyph-name="uni0438" unicode="&#x0438;" d="M579 0L550 1Q525 107 513 211.50Q501 316 501 419Q501 468 504 514Q505 529 507 551.50Q509 574 512 603L513 609L510 601Q442 421 330 234Q288 164 251 112.50Q214 61 182 28L182 28L182 28L52 60Q40 419 201 800L229 796Q156 556 156 325Q156 287 157.50 251.50Q159 216 163 182L165 163L198 197Q288 290 367 423Q396 472 428 533Q460 594 495 668L537 756L671 764Q568 482 568 194Q568 152 571 103.50Q574 55 579 0Z"  horiz-adv-x="700" vert-adv-y="1000"  />

      
      <glyph glyph-name="uni0439" unicode="&#x0439;" d="M572 0L544 1Q520 111 507.50 215Q495 319 495 418Q495 512 507 602L507 607L504 599Q479 523 434.50 431Q390 339 326 232Q285 165 248 113.50Q211 62 177 28L177 28L177 28L47 59Q40 240 77.50 424Q115 608 195 799L224 795Q151 552 151 324Q151 306 152.50 270Q154 234 158 181L160 164L192 197Q329 336 489 666L532 753L664 762Q561 478 561 193Q561 146 564 98Q567 50 572 0M460 873Q334 873 262 954L310 1017Q409 912 504 912Q561 912 634 953L633 935Q550 873 460 873Z"  horiz-adv-x="699" vert-adv-y="1000"  />

      
      <glyph glyph-name="uni043A" unicode="&#x043A;" d="M70 0L40 4Q105 243 105 466Q105 619 73 800L208 769Q216 626 196 474L190 429L197 439Q335 635 531 762L606 696Q419 608 287 482L266 462L284 420Q366 228 560 58L478 19Q318 203 255 424L249 445L243 439Q218 414 201 394L179 368L168 313Q154 246 129.50 168Q105 90 70 0Z"  horiz-adv-x="646" vert-adv-y="1000"  />

      
      <glyph glyph-name="uni043B" unicode="&#x043B;" d="M68 0L40 10Q72 424 283 800L384 776Q375 765 367 754Q359 743 352 732L332 702L341 668Q437 304 647 42L547 15Q468 146 427 234Q344 412 310 615L303 655L294 640Q140 384 68 0Z"  horiz-adv-x="687" vert-adv-y="1000"  />

      
      <glyph glyph-name="uni043C" unicode="&#x043C;" d="M178 0L40 26Q262 356 312 680L316 706L295 737Q282 756 268 773L352 794Q514 517 551 255L554 234L559 263Q606 533 766 800L850 777Q845 771 838 762Q831 753 822 741L810 724L816 690Q876 354 1088 35L950 10Q809 294 779 639L776 674L771 666Q646 468 585 219L566 143L567 138L543 129Q479 433 368 622L351 651L349 629Q317 283 178 0Z"  horiz-adv-x="1128" vert-adv-y="1000"  />

      
      <glyph glyph-name="uni043D" unicode="&#x043D;" d="M200 0L167 1Q191 139 191 254Q191 318 188 345L185 372L168 374Q120 379 88.50 385Q57 391 41 397L40 425Q85 418 133 416L181 414L178 440Q163 574 97 800L207 788Q248 651 248 463L248 412L318 412Q406 412 504 431L572 444L572 463Q572 650 613 788L723 800Q694 704 675.50 626Q657 548 649 488L645 460L646 460Q671 467 707 478Q743 489 792 504L786 407Q738 388 649 376L635 374L632 345Q629 316 629 253Q629 139 653 1L620 0Q573 115 573 346L573 368L542 365Q516 363 482.50 361.50Q449 360 409 361Q380 361 343.50 362.50Q307 364 264 366L247 367L247 346Q247 114 200 0Z"  horiz-adv-x="832" vert-adv-y="1000"  />

      
      <glyph glyph-name="uni043E" unicode="&#x043E;" d="M77 0L83 70Q87 71 95 72.50Q103 74 114 76L121 77L115 94Q40 307 40 556Q40 589 43 635.50Q46 682 51 743L51 743L51 743L51 743L167 737Q339 728 517 800L513 730L501 727Q498 726 493.50 725Q489 724 482 722L479 721L489 691Q552 502 552 294Q552 269 547.50 210.50Q543 152 535 58L533 36L532 36L476 40Q441 42 411.50 43.50Q382 45 358 45Q209 45 77 0M415 84L447 78L449 88Q486 267 486 406Q486 535 459 663L448 715L443 713Q400 703 357 698.50Q314 694 271 694Q244 694 219 695.50Q194 697 171 701L158 703L155 687Q150 660 142.50 620Q135 580 127 528Q118 452 118 380Q118 282 147 116L153 83L174 87Q222 95 287 95Q321 95 352.50 92Q384 89 415 84Z"  horiz-adv-x="592" vert-adv-y="1000"  />

      
      <glyph glyph-name="uni043F" unicode="&#x043F;" d="M159 0L131 0Q158 186 158 341Q158 529 116 697L113 709L101 712Q91 714 76 718Q61 722 40 727L40 754L104 744L103 748Q102 750 99 762.50Q96 775 89 798L187 787Q188 779 190 766Q192 753 195 735L196 734L218 732Q297 725 366.50 724.50Q436 724 497 731L552 737L560 789L658 800Q656 792 652 779L643 750L685 758Q704 762 726.50 768Q749 774 777 782L767 692Q707 681 655 677L626 674L621 649Q592 498 592 351Q592 275 599.50 187.50Q607 100 621 2L593 2Q530 233 530 470Q530 526 533 575.50Q536 625 543 668L543 670L533 669Q470 663 372 670Q276 676 220 688L201 692L204 666Q211 610 214 556.50Q217 503 217 453Q217 214 159 0Z"  horiz-adv-x="817" vert-adv-y="1000"  />

      
      <glyph glyph-name="uni0440" unicode="&#x0440;" d="M144 1L114 0Q122 81 126.50 146.50Q131 212 131 262Q131 313 125 385L121 433Q107 591 40 780L42 780L48 793Q67 797 87 798.50Q107 800 127 800Q265 800 377 718Q473 649 493 572Q467 518 397 469Q309 408 204 399L193 398L192 364Q188 192 144 1M193 466L193 429L219 435Q355 466 406 569L410 577L400 599Q341 730 173 760L162 762Q193 616 193 466Z"  horiz-adv-x="533" vert-adv-y="1000"  />

      
      <glyph glyph-name="uni0441" unicode="&#x0441;" d="M68 0L75 72L101 77L97 90Q40 274 40 506Q40 605 58 743L61 766L62 787Q196 763 296 763Q429 763 547 800L536 728Q481 720 437.50 716Q394 712 362 712Q276 712 182 732L173 734L166 705Q112 482 112 330Q112 227 130 115L135 84L146 86Q178 91 212 94Q246 97 281 97Q412 97 539 57L539 36Q419 45 357 45Q203 45 68 0Z"  horiz-adv-x="587" vert-adv-y="1000"  />

      
      <glyph glyph-name="uni0442" unicode="&#x0442;" d="M422 8L295 0Q395 273 395 527Q395 561 394 588.50Q393 616 391 637L386 689L345 689Q204 689 41 727L40 750Q158 735 267 735Q494 735 684 800L678 720Q631 710 569.50 703Q508 696 433 691L418 690L424 662Q458 507 458 334Q458 172 422 8Z"  horiz-adv-x="724" vert-adv-y="1000"  />

      
      <glyph glyph-name="uni0443" unicode="&#x0443;" d="M67 0L40 15Q177 188 276 371L278 373L255 402Q124 567 74 760L141 800Q168 587 266 425L287 391L302 420Q392 594 434 787L520 724Q369 303 67 0Z"  horiz-adv-x="560" vert-adv-y="1000"  />

      
      <glyph glyph-name="uni0444" unicode="&#x0444;" d="M391 0L362 0Q340 79 327 150.50Q314 222 309 287L303 373L295 374Q254 379 222.50 383Q191 387 170 391Q99 404 40 418L40 441Q174 420 270 420L301 420L300 458Q297 581 309 667L310 674L284 674Q199 674 92 693L89 699L97 654Q106 603 106 546Q106 521 103 493Q100 465 95 433L40 441Q70 532 70 623Q70 649 68 676.50Q66 704 62 732L56 774L57 774L116 758Q207 735 300 729L317 728L318 736Q320 749 322 762.50Q324 776 326 789L424 800Q422 792 418 779Q414 766 410 750L404 724L462 725Q511 726 569 732Q627 738 695 748L696 725Q664 623 664 535Q664 505 667 474L668 470L677 390L658 387Q512 364 387 369L362 370L362 318Q362 254 369.50 174.50Q377 95 391 0M366 483L363 421L428 425Q471 427 510.50 433.50Q550 440 587 450L646 466L644 479Q640 498 636 525.50Q632 553 627 588Q621 644 624 680L626 708L592 700Q544 690 404 676L393 675L387 648Q370 573 366 483Z"  horiz-adv-x="736" vert-adv-y="1000"  />

      
      <glyph glyph-name="uni0445" unicode="&#x0445;" d="M67 0L40 16Q169 177 225 280L266 353L254 373Q201 461 158 556Q115 651 81 753L107 770Q148 678 186 607Q224 536 258 485L302 419L306 427Q353 521 386.50 614.50Q420 708 440 800L528 736Q511 687 492 640.50Q473 594 451 549Q435 515 412 473Q389 431 359 380L345 356L352 347Q495 164 623 57L526 8Q468 69 416 134.50Q364 200 318 271L304 292L292 274Q243 201 187 132.50Q131 64 67 0Z"  horiz-adv-x="663" vert-adv-y="1000"  />

      
      <glyph glyph-name="uni0446" unicode="&#x0446;" d="M548-355L478-285Q611-152 666 6L682 51L657 55L597 61L596 60Q594 51 587 41L578 24L547 24L561 65L486 68Q336 74 179 38L142 29L130 0L99 3L103 19L86 15Q78 12 66 9Q54 6 40 0L56 134Q70 139 79.50 141.50Q89 144 95 146L129 151L136 191Q144 236 148 288Q152 340 152 397Q152 482 140 577.50Q128 673 105 780L238 755Q251 700 251 617Q251 486 235.50 374.50Q220 263 186 173L180 157L185 157Q198 158 214.50 159Q231 160 246 160Q375 160 541 124L576 117L578 118Q611 224 627 336Q643 448 643 566Q643 617 638.50 675Q634 733 627 800L752 781Q756 757 756 714Q756 650 744 572Q732 494 709 400Q690 324 667 252Q644 180 618 110L616 108L629 106Q636 104 645 101.50Q654 99 666 95L694 87L706 124L720 110Q720 94 719 93L716 80L726 77Q729 76 733.50 74.50Q738 73 746 70L745 39L710 45L703 18Q662-134 624-227Q586-320 548-355Z"  horiz-adv-x="796" vert-adv-y="1000"  />

      
      <glyph glyph-name="uni0447" unicode="&#x0447;" d="M371 0L274 1Q364 208 385 400L388 428L347 428Q197 428 57 353L57 353L57 353L40 355Q72 483 72 598Q72 697 51 800L127 784Q128 768 128.50 752Q129 736 129 719Q129 577 82 427L82 425L107 432Q193 455 266 455Q286 455 309 453.50Q332 452 359 448L390 444L397 502Q402 545 404.50 596Q407 647 407 708Q407 730 407 752.50Q407 775 406 798L433 795Q441 736 445 675Q449 614 449 552Q449 270 371 0Z"  horiz-adv-x="489" vert-adv-y="1000"  />

      
      <glyph glyph-name="uni0448" unicode="&#x0448;" d="M75 0L95 127L104 213Q110 270 110 341Q110 557 40 800L174 782Q192 664 192 549Q192 378 144 154L141 140L156 143Q178 148 211 152Q244 156 288 160Q351 166 409 166Q419 166 438 165Q457 164 467 164L469 164L469 169Q474 210 476.50 248.50Q479 287 479 322Q479 438 435 676L553 656Q553 639 553.50 619.50Q554 600 555 577L555 552Q555 387 511 200L502 163L511 163Q643 163 801 129L830 123L837 197Q841 234 842.50 266.50Q844 299 844 327Q844 542 774 785L908 767Q926 646 926 533Q926 338 877 138L871 113L931 98Q934 97 941 95.50Q948 94 959 90L998 77L997 39Q979 44 952 48Q942 50 926 52.50Q910 55 888 58L858 61L842 6L813 7L822 66L776 71Q666 83 577 83Q318 83 75 0Z"  horiz-adv-x="1038" vert-adv-y="1000"  />

      
      <glyph glyph-name="uni0449" unicode="&#x0449;" d="M788-349L718-279Q781-214 829-141Q877-68 908 14L922 54L887 60L837 66L819 6L791 8L799 70L773 73Q656 85 578 85Q442 85 317 64.50Q192 44 74 0L95 128L105 215Q109 238 110 270Q111 302 111 342Q111 448 93.50 563Q76 678 40 800L173 783Q192 672 192 549Q192 476 180 376Q168 276 144 156L141 142L155 145Q275 166 468 166L469 166L469 171Q474 211 477 248.50Q480 286 480 322Q480 386 469 475Q458 564 434 677L553 656L553 484Q553 437 542.50 366Q532 295 510 202L501 164L510 164Q553 164 624.50 155.50Q696 147 799 129L808 128L815 199Q818 224 819.50 258Q821 292 821 327Q821 534 752 785L886 767Q904 647 904 533Q904 449 891.50 351Q879 253 856 141L851 119L865 115Q876 111 893 107Q910 103 930 98L936 95L949 134L964 118Q964 103 962 101L959 90L998 79L998 41L951 49L944 26Q928-40 912-93Q896-146 881-183Q860-244 835.50-284.50Q811-325 788-349Z"  horiz-adv-x="1038" vert-adv-y="1000"  />

      
      <glyph glyph-name="uni044A" unicode="&#x044A;" d="M370 3L367 3L287 0Q316 80 336.50 145Q357 210 370 259L382 306L392 354Q422 498 422 622Q422 644 420.50 672Q419 700 417 734L415 761L373 748Q247 708 133 708Q121 708 110.50 708.50Q100 709 91 710L40 800Q177 765 291 765Q316 765 340 766.50Q364 768 387 772L413 776L412 793L444 792Q470 711 470 527Q470 481 468.50 440Q467 399 463 363L463 356L478 354Q607 338 705 222L722 202L755 158L738 136L722 116Q631 1 433 1Q422 1 401 2Q380 3 370 3M412 50L407 35L436 39Q496 48 551 68Q615 94 678 157L697 176Q648 225 615 245Q561 279 490 292L458 298L453 252Q446 194 436 143.50Q426 93 412 50Z"  horiz-adv-x="795" vert-adv-y="1000"  />

      
      <glyph glyph-name="uni044B" unicode="&#x044B;" d="M123 9L120 9L40 0Q64 83 80.50 149Q97 215 105 263L114 312L121 360Q128 407 131 453Q134 499 134 543Q134 665 110 799L142 800Q153 774 161.50 732.50Q170 691 177 633Q184 570 188 505.50Q192 441 191 374L191 366L206 366Q331 366 442 251L460 232L495 190L481 166L466 146Q403 59 288 28Q231 12 123 9M579 7L550 8Q502 227 502 441Q502 626 538 792L648 795Q563 555 563 281Q563 221 567 152.50Q571 84 579 7M162 58L158 43L186 49Q263 69 299 86Q361 117 419 184L436 203L436 204Q410 226 388.50 241.50Q367 257 350 267Q293 296 223 305L190 308L188 263Q186 202 179.50 150.50Q173 99 162 58Z"  horiz-adv-x="688" vert-adv-y="1000"  />

      
      <glyph glyph-name="uni044C" unicode="&#x044C;" d="M110 799L142 800Q163 750 177 633Q184 571 187.50 506Q191 441 191 374L191 367L207 366Q341 358 442 251L460 232L496 190L481 166L466 146Q400 59 288 28Q222 9 123 9L120 9L40 0Q62 76 78.50 142Q95 208 105 263L114 312L121 360Q128 408 131.50 453Q135 498 135 539Q135 665 110 799M223 305L190 308L188 263Q182 140 162 58L158 43L186 49Q257 66 299 86Q365 118 419 184L436 204Q346 294 223 305Z"  horiz-adv-x="536" vert-adv-y="1000"  />

      
      <glyph glyph-name="uni044D" unicode="&#x044D;" d="M213 0Q98 0 40 16L68 121Q260 42 411 42Q420 42 429 42Q438 42 447 43L477 45L485 71Q521 188 521 322L521 364L469 371Q402 380 342 380Q262 380 183 365L156 451Q205 455 293 445Q349 438 402.50 427.50Q456 417 506 401L519 397L519 407Q519 586 417 724L403 743L378 743Q275 743 104 683L84 792Q107 796 134 798Q161 800 192 800Q342 800 500 763L535 755L541 755Q593 608 593 456Q593 281 525 92L502 29L461 21Q353 0 213 0Z"  horiz-adv-x="633" vert-adv-y="1000"  />

      
      <glyph glyph-name="uni044E" unicode="&#x044E;" d="M820 0L791 3L803 60L783 56Q664 32 594 35L570 36L574 17L545 15Q539 27 536 36L535 39L509 43Q505 44 499.50 45.50Q494 47 486 49L476 132L511 122L506 142Q495 190 486 241Q477 292 471 345L466 392L462 393Q354 420 279 420Q262 420 244.50 419Q227 418 208 416L171 412L170 409Q158 318 131 212Q115 148 100 100.50Q85 53 69 22L40 25Q65 125 77 224.50Q89 324 89 422Q89 612 46 800L178 774Q185 743 188.50 709Q192 675 192 637Q192 592 189 549Q186 506 179 466L175 441Q301 474 395 474L415 474Q419 474 423.50 474Q428 474 432 473L459 470L457 497Q455 531 453.50 559.50Q452 588 452 613Q452 630 453.50 654Q455 678 459 709L460 718L455 719Q437 722 426 729L416 800L483 778L568 792L561 758L620 748Q692 736 751 740L804 743L797 778L895 759L896 756L945 766L946 740Q939 736 930.50 732.50Q922 729 911 727L902 724L906 692Q910 660 912 629.50Q914 599 914 570Q914 517 910.50 463Q907 409 900 354Q892 294 858 127L852 98L855 99Q878 102 909 108L909 90Q897 85 885 80.50Q873 76 860 73L844 69L839 50Q835 37 830 24.50Q825 12 820 0M750 90Q765 90 803 93L811 94L811 97Q844 242 844 394Q844 464 836.50 537Q829 610 815 687L811 708L791 706Q720 699 662.50 698Q605 697 559 702L550 703L550 702Q522 574 522 424Q522 390 524 350.50Q526 311 530 265Q541 154 554 111L588 104Q664 89 750 90Z"  horiz-adv-x="986" vert-adv-y="1000"  />

      
      <glyph glyph-name="uni044F" unicode="&#x044F;" d="M169 0L40 4Q280 201 399 440L365 444Q269 455 171 554L153 572L118 613L133 636L147 656Q206 741 323 772Q390 791 484 791L487 791L566 800Q543 717 526.50 652.50Q510 588 502 541L493 493L486 446Q474 365 474 266Q474 208 480 145Q486 82 497 14L465 13Q448 57 435 150Q428 200 424 254Q420 308 419 365L418 422L415 414Q320 160 169 0M386 500L419 497L421 541Q427 675 446 743L450 758L423 751Q344 730 312 715Q253 686 193 619L176 600Q265 511 386 500Z"  horiz-adv-x="606" vert-adv-y="1000"  />

      
      <glyph glyph-name="uni0451" unicode="&#x0451;" d="M596 97L608 0Q439 49 282 49Q256 49 232.50 48Q209 47 184 44L123 38L110 2L81 6L87 32L47 26L46 47L93 60L99 90Q130 233 130 343L130 399L99 408L100 428L131 423L131 429Q131 510 107 694L104 712L88 716Q80 717 68 721.50Q56 726 40 730L41 751L99 742L98 747Q96 749 87 800L222 774Q222 770 223 763.50Q224 757 225 749L226 731L247 730Q401 721 602 778L590 680Q506 668 431 668Q347 668 267 680L227 687L229 653Q231 593 227 533.50Q223 474 213 415L213 412L217 410Q253 407 287 407Q385 407 547 452L534 361Q494 356 464 353Q434 350 412 350Q377 350 330.50 356.50Q284 363 225 375L208 378L208 375Q200 322 184.50 254Q169 186 144 104L134 70L141 73Q252 108 431 108Q471 108 512 105.50Q553 103 596 97M291 901L203 897Q198 915 191 936Q184 957 176 980L279 974Q287 942 291 901M495 903L405 907Q411 953 418 980L522 986Q514 961 507 941Q500 921 495 903Z"  horiz-adv-x="648" vert-adv-y="1000"  />

      
      <glyph glyph-name="uni2013" unicode="&#x2013;" d="M493 319Q271 316 40 370L40 392Q101 384 160.50 380Q220 376 278 376Q496 376 715 434L702 334Q599 321 493 319Z"  horiz-adv-x="755" vert-adv-y="1000"  />

      
      <glyph glyph-name="uni2018" unicode="&#x2018;" d="M113 800L119 797Q103 765 93 737Q83 709 79 683L75 651L124 653Q129 634 136 613.50Q143 593 151 571L48 577Q35 599 42 629L47 650Q63 727 113 800Z"  horiz-adv-x="192" vert-adv-y="1000"  />

      
      <glyph glyph-name="uni2019" unicode="&#x2019;" d="M78 571L72 574Q88 606 98 634Q108 662 112 688L116 720L67 718Q62 737 55 757.50Q48 778 40 800L143 794Q156 772 149 742L144 721Q128 644 78 571Z"  horiz-adv-x="192" vert-adv-y="1000"  />

      
      <glyph glyph-name="uni201A" unicode="&#x201A;" d="M72 0L67 2Q93 50 100 99L104 126L63 124Q56 147 50 164.50Q44 182 40 193L127 188Q138 168 132 144L128 127Q112 58 72 0Z"  horiz-adv-x="175" vert-adv-y="1000"  />

      
      <glyph glyph-name="uni201C" unicode="&#x201C;" d="M198 578Q189 592 189 608Q189 613 197 650Q217 730 263 800L270 798Q239 744 230 683L225 651L274 653L286 614Q290 604 293.50 593Q297 582 301 571L198 578M49 578Q40 592 40 608Q40 607 48 650L51 664Q64 728 114 800L121 798Q90 744 81 683L76 651L125 653Q130 636 137 615.50Q144 595 152 571L49 578Z"  horiz-adv-x="341" vert-adv-y="1000"  />

      
      <glyph glyph-name="uni201D" unicode="&#x201D;" d="M78 571L72 574Q106 639 112 688L116 720L67 718Q62 737 55 757.50Q48 778 40 800L143 794Q152 780 152 764Q152 758 144 721Q124 643 78 571M227 571L220 574Q251 630 260 688L265 720L216 718Q211 737 204 757.50Q197 778 189 800L292 794Q301 780 301 763Q301 758 293 721L293 721Q276 644 227 571Z"  horiz-adv-x="341" vert-adv-y="1000"  />

      
      <glyph glyph-name="uni201E" unicode="&#x201E;" d="M72 0L67 2Q93 50 100 99L104 126L63 124Q56 147 50 164.50Q44 182 40 193L127 188Q138 166 128 127Q111 57 72 0M198 0L192 2Q219 54 226 99L230 126L189 124Q187 133 184 142Q181 151 178 159L166 193L250 189Q256 178 256 163Q256 152 251 127L251 127Q234 54 198 0Z"  horiz-adv-x="296" vert-adv-y="1000"  />

      

  </font>
</defs>
</svg>
